%FSLAX45Y45*%
G04 Gerber Fmt 4.5, Leading zero omitted, Abs format (unit mm)*
G04 Created by KiCad (PCBNEW no-vcs-found) date Mon Oct  9 11:26:29 2017*
%MOMM*%
%LPD*%
G01*
G04 APERTURE LIST*
%ADD10C,0.150000*%
%ADD11C,0.200000*%
%ADD12C,0.300000*%
G04 APERTURE END LIST*
D10*
X17080000Y-10020000D02*
G75*
G02X17480000Y-10420000I0J-400000D01*
G01*
X17480000Y-14580000D02*
G75*
G02X17080000Y-14980000I-400000J0D01*
G01*
X10420000Y-15000000D02*
G75*
G02X10020000Y-14600000I0J400000D01*
G01*
X10420000Y-10020000D02*
G75*
G03X10020000Y-10420000I0J-400000D01*
G01*
X17480000Y-14580000D02*
X17480000Y-10420000D01*
X10420000Y-15000000D02*
X17080000Y-14980000D01*
X10020000Y-10420000D02*
X10020000Y-14600000D01*
X10420000Y-10020000D02*
X17080000Y-10020000D01*
D11*
X10630000Y-13905000D02*
X10670000Y-13945000D01*
X10670000Y-13905000D02*
X10630000Y-13945000D01*
X10805000Y-13405000D02*
X10845000Y-13445000D01*
X10845000Y-13405000D02*
X10805000Y-13445000D01*
X11030000Y-13905000D02*
X11070000Y-13945000D01*
X11070000Y-13905000D02*
X11030000Y-13945000D01*
X11905000Y-13130000D02*
X11945000Y-13170000D01*
X11945000Y-13130000D02*
X11905000Y-13170000D01*
X11980000Y-13805000D02*
X12020000Y-13845000D01*
X12020000Y-13805000D02*
X11980000Y-13845000D01*
X12205000Y-13805000D02*
X12245000Y-13845000D01*
X12245000Y-13805000D02*
X12205000Y-13845000D01*
X12230000Y-13577500D02*
X12270000Y-13617500D01*
X12270000Y-13577500D02*
X12230000Y-13617500D01*
X12300000Y-14220000D02*
X12340000Y-14260000D01*
X12340000Y-14220000D02*
X12300000Y-14260000D01*
X12355000Y-12480000D02*
X12395000Y-12520000D01*
X12395000Y-12480000D02*
X12355000Y-12520000D01*
X12355000Y-12830000D02*
X12395000Y-12870000D01*
X12395000Y-12830000D02*
X12355000Y-12870000D01*
X12430000Y-14180000D02*
X12470000Y-14220000D01*
X12470000Y-14180000D02*
X12430000Y-14220000D01*
X12980000Y-11230000D02*
X13020000Y-11270000D01*
X13020000Y-11230000D02*
X12980000Y-11270000D01*
X13180000Y-11705000D02*
X13220000Y-11745000D01*
X13220000Y-11705000D02*
X13180000Y-11745000D01*
X13280000Y-12680000D02*
X13320000Y-12720000D01*
X13320000Y-12680000D02*
X13280000Y-12720000D01*
X13280001Y-13280000D02*
X13320001Y-13320000D01*
X13320001Y-13280000D02*
X13280001Y-13320000D01*
X13305000Y-12555000D02*
X13345000Y-12595000D01*
X13345000Y-12555000D02*
X13305000Y-12595000D01*
X13530000Y-11730000D02*
X13570000Y-11770000D01*
X13570000Y-11730000D02*
X13530000Y-11770000D01*
X13605000Y-10780000D02*
X13645000Y-10820000D01*
X13645000Y-10780000D02*
X13605000Y-10820000D01*
X13780000Y-11230000D02*
X13820000Y-11270000D01*
X13820000Y-11230000D02*
X13780000Y-11270000D01*
X13880000Y-13405000D02*
X13920000Y-13445000D01*
X13920000Y-13405000D02*
X13880000Y-13445000D01*
X13880000Y-13827499D02*
X13920000Y-13867499D01*
X13920000Y-13827499D02*
X13880000Y-13867499D01*
X14030000Y-11680000D02*
X14070000Y-11720000D01*
X14070000Y-11680000D02*
X14030000Y-11720000D01*
X14055000Y-13405000D02*
X14095000Y-13445000D01*
X14095000Y-13405000D02*
X14055000Y-13445000D01*
X14080000Y-12205000D02*
X14120000Y-12245000D01*
X14120000Y-12205000D02*
X14080000Y-12245000D01*
X14180000Y-13980000D02*
X14220000Y-14020000D01*
X14220000Y-13980000D02*
X14180000Y-14020000D01*
X14261569Y-13892501D02*
X14301569Y-13932501D01*
X14301569Y-13892501D02*
X14261569Y-13932501D01*
X14355000Y-11730000D02*
X14395000Y-11770000D01*
X14395000Y-11730000D02*
X14355000Y-11770000D01*
X14430000Y-13680000D02*
X14470000Y-13720000D01*
X14470000Y-13680000D02*
X14430000Y-13720000D01*
X14430000Y-14280000D02*
X14470000Y-14320000D01*
X14470000Y-14280000D02*
X14430000Y-14320000D01*
X14455000Y-10780000D02*
X14495000Y-10820000D01*
X14495000Y-10780000D02*
X14455000Y-10820000D01*
X14455000Y-11980000D02*
X14495000Y-12020000D01*
X14495000Y-11980000D02*
X14455000Y-12020000D01*
X14455000Y-12930000D02*
X14495000Y-12970000D01*
X14495000Y-12930000D02*
X14455000Y-12970000D01*
X14630000Y-11230000D02*
X14670000Y-11270000D01*
X14670000Y-11230000D02*
X14630000Y-11270000D01*
X14855000Y-14180000D02*
X14895000Y-14220000D01*
X14895000Y-14180000D02*
X14855000Y-14220000D01*
X15055000Y-13705000D02*
X15095000Y-13745000D01*
X15095000Y-13705000D02*
X15055000Y-13745000D01*
X15125000Y-10575000D02*
G75*
G03X15125000Y-10575000I-50000J0D01*
G01*
X14100000Y-10575000D02*
G75*
G03X14100000Y-10575000I-50000J0D01*
G01*
X13250000Y-10575000D02*
G75*
G03X13250000Y-10575000I-50000J0D01*
G01*
X11200000Y-14649200D02*
X11200000Y-14750800D01*
X11149200Y-14700000D02*
X11250800Y-14700000D01*
X11454000Y-14649200D02*
X11454000Y-14750800D01*
X11403200Y-14700000D02*
X11504800Y-14700000D01*
X11708000Y-14649200D02*
X11708000Y-14750800D01*
X11657200Y-14700000D02*
X11758800Y-14700000D01*
X11962000Y-14649200D02*
X11962000Y-14750800D01*
X11911200Y-14700000D02*
X12012800Y-14700000D01*
X12216000Y-14649200D02*
X12216000Y-14750800D01*
X12165200Y-14700000D02*
X12266800Y-14700000D01*
X12470000Y-14649200D02*
X12470000Y-14750800D01*
X12419200Y-14700000D02*
X12520800Y-14700000D01*
X12724000Y-14649200D02*
X12724000Y-14750800D01*
X12673200Y-14700000D02*
X12774800Y-14700000D01*
X12978000Y-14649200D02*
X12978000Y-14750800D01*
X12927200Y-14700000D02*
X13028800Y-14700000D01*
X11063640Y-12143640D02*
X11063640Y-12016360D01*
X10936360Y-12016360D01*
X10936360Y-12143640D01*
X11063640Y-12143640D01*
X11063640Y-12563640D02*
X11063640Y-12436360D01*
X10936360Y-12436360D01*
X10936360Y-12563640D01*
X11063640Y-12563640D01*
X11613640Y-12143640D02*
X11613640Y-12016360D01*
X11486360Y-12016360D01*
X11486360Y-12143640D01*
X11613640Y-12143640D01*
X11613640Y-12563640D02*
X11613640Y-12436360D01*
X11486360Y-12436360D01*
X11486360Y-12563640D01*
X11613640Y-12563640D01*
X11063640Y-11263640D02*
X11063640Y-11136360D01*
X10936360Y-11136360D01*
X10936360Y-11263640D01*
X11063640Y-11263640D01*
X11613640Y-11263640D02*
X11613640Y-11136360D01*
X11486360Y-11136360D01*
X11486360Y-11263640D01*
X11613640Y-11263640D01*
X16013640Y-12563640D02*
X16013640Y-12436360D01*
X15886360Y-12436360D01*
X15886360Y-12563640D01*
X16013640Y-12563640D01*
X16013640Y-12983640D02*
X16013640Y-12856360D01*
X15886360Y-12856360D01*
X15886360Y-12983640D01*
X16013640Y-12983640D01*
X16013640Y-13403640D02*
X16013640Y-13276360D01*
X15886360Y-13276360D01*
X15886360Y-13403640D01*
X16013640Y-13403640D01*
X16013640Y-13823640D02*
X16013640Y-13696360D01*
X15886360Y-13696360D01*
X15886360Y-13823640D01*
X16013640Y-13823640D01*
X16563640Y-12563640D02*
X16563640Y-12436360D01*
X16436360Y-12436360D01*
X16436360Y-12563640D01*
X16563640Y-12563640D01*
X16563640Y-12983640D02*
X16563640Y-12856360D01*
X16436360Y-12856360D01*
X16436360Y-12983640D01*
X16563640Y-12983640D01*
X16563640Y-13403640D02*
X16563640Y-13276360D01*
X16436360Y-13276360D01*
X16436360Y-13403640D01*
X16563640Y-13403640D01*
X16563640Y-13823640D02*
X16563640Y-13696360D01*
X16436360Y-13696360D01*
X16436360Y-13823640D01*
X16563640Y-13823640D01*
X16013640Y-11263640D02*
X16013640Y-11136360D01*
X15886360Y-11136360D01*
X15886360Y-11263640D01*
X16013640Y-11263640D01*
X16013640Y-11683640D02*
X16013640Y-11556360D01*
X15886360Y-11556360D01*
X15886360Y-11683640D01*
X16013640Y-11683640D01*
X16563640Y-11263640D02*
X16563640Y-11136360D01*
X16436360Y-11136360D01*
X16436360Y-11263640D01*
X16563640Y-11263640D01*
X16563640Y-11683640D02*
X16563640Y-11556360D01*
X16436360Y-11556360D01*
X16436360Y-11683640D01*
X16563640Y-11683640D01*
X10400000Y-14760000D02*
X10560000Y-14600000D01*
X10400000Y-14440000D01*
X10240000Y-14600000D01*
X10400000Y-14760000D01*
X10400000Y-10560000D02*
X10560000Y-10400000D01*
X10400000Y-10240000D01*
X10240000Y-10400000D01*
X10400000Y-10560000D01*
X17100000Y-10560000D02*
X17260000Y-10400000D01*
X17100000Y-10240000D01*
X16940000Y-10400000D01*
X17100000Y-10560000D01*
X17100000Y-14760000D02*
X17260000Y-14600000D01*
X17100000Y-14440000D01*
X16940000Y-14600000D01*
X17100000Y-14760000D01*
D12*
X10298928Y-15473214D02*
X10298928Y-15173214D01*
X10370357Y-15173214D01*
X10413214Y-15187500D01*
X10441786Y-15216071D01*
X10456071Y-15244643D01*
X10470357Y-15301786D01*
X10470357Y-15344643D01*
X10456071Y-15401786D01*
X10441786Y-15430357D01*
X10413214Y-15458929D01*
X10370357Y-15473214D01*
X10298928Y-15473214D01*
X10598928Y-15473214D02*
X10598928Y-15273214D01*
X10598928Y-15330357D02*
X10613214Y-15301786D01*
X10627500Y-15287500D01*
X10656071Y-15273214D01*
X10684643Y-15273214D01*
X10784643Y-15473214D02*
X10784643Y-15273214D01*
X10784643Y-15173214D02*
X10770357Y-15187500D01*
X10784643Y-15201786D01*
X10798928Y-15187500D01*
X10784643Y-15173214D01*
X10784643Y-15201786D01*
X10970357Y-15473214D02*
X10941786Y-15458929D01*
X10927500Y-15430357D01*
X10927500Y-15173214D01*
X11127500Y-15473214D02*
X11098928Y-15458929D01*
X11084643Y-15430357D01*
X11084643Y-15173214D01*
X11470357Y-15473214D02*
X11470357Y-15173214D01*
X11570357Y-15387500D01*
X11670357Y-15173214D01*
X11670357Y-15473214D01*
X11941786Y-15473214D02*
X11941786Y-15316071D01*
X11927500Y-15287500D01*
X11898928Y-15273214D01*
X11841786Y-15273214D01*
X11813214Y-15287500D01*
X11941786Y-15458929D02*
X11913214Y-15473214D01*
X11841786Y-15473214D01*
X11813214Y-15458929D01*
X11798928Y-15430357D01*
X11798928Y-15401786D01*
X11813214Y-15373214D01*
X11841786Y-15358929D01*
X11913214Y-15358929D01*
X11941786Y-15344643D01*
X12084643Y-15273214D02*
X12084643Y-15573214D01*
X12084643Y-15287500D02*
X12113214Y-15273214D01*
X12170357Y-15273214D01*
X12198928Y-15287500D01*
X12213214Y-15301786D01*
X12227500Y-15330357D01*
X12227500Y-15416071D01*
X12213214Y-15444643D01*
X12198928Y-15458929D01*
X12170357Y-15473214D01*
X12113214Y-15473214D01*
X12084643Y-15458929D01*
X12356071Y-15444643D02*
X12370357Y-15458929D01*
X12356071Y-15473214D01*
X12341786Y-15458929D01*
X12356071Y-15444643D01*
X12356071Y-15473214D01*
X12356071Y-15287500D02*
X12370357Y-15301786D01*
X12356071Y-15316071D01*
X12341786Y-15301786D01*
X12356071Y-15287500D01*
X12356071Y-15316071D01*
X9972500Y-15947500D02*
X10012500Y-15987500D01*
X10012500Y-15947500D02*
X9972500Y-15987500D01*
X10356071Y-15803214D02*
X10384643Y-15803214D01*
X10413214Y-15817500D01*
X10427500Y-15831786D01*
X10441786Y-15860357D01*
X10456071Y-15917500D01*
X10456071Y-15988929D01*
X10441786Y-16046071D01*
X10427500Y-16074643D01*
X10413214Y-16088929D01*
X10384643Y-16103214D01*
X10356071Y-16103214D01*
X10327500Y-16088929D01*
X10313214Y-16074643D01*
X10298928Y-16046071D01*
X10284643Y-15988929D01*
X10284643Y-15917500D01*
X10298928Y-15860357D01*
X10313214Y-15831786D01*
X10327500Y-15817500D01*
X10356071Y-15803214D01*
X10584643Y-16074643D02*
X10598928Y-16088929D01*
X10584643Y-16103214D01*
X10570357Y-16088929D01*
X10584643Y-16074643D01*
X10584643Y-16103214D01*
X10856071Y-15903214D02*
X10856071Y-16103214D01*
X10784643Y-15788929D02*
X10713214Y-16003214D01*
X10898928Y-16003214D01*
X11070357Y-15803214D02*
X11098928Y-15803214D01*
X11127500Y-15817500D01*
X11141786Y-15831786D01*
X11156071Y-15860357D01*
X11170357Y-15917500D01*
X11170357Y-15988929D01*
X11156071Y-16046071D01*
X11141786Y-16074643D01*
X11127500Y-16088929D01*
X11098928Y-16103214D01*
X11070357Y-16103214D01*
X11041786Y-16088929D01*
X11027500Y-16074643D01*
X11013214Y-16046071D01*
X10998928Y-15988929D01*
X10998928Y-15917500D01*
X11013214Y-15860357D01*
X11027500Y-15831786D01*
X11041786Y-15817500D01*
X11070357Y-15803214D01*
X11298928Y-16103214D02*
X11298928Y-15903214D01*
X11298928Y-15931786D02*
X11313214Y-15917500D01*
X11341786Y-15903214D01*
X11384643Y-15903214D01*
X11413214Y-15917500D01*
X11427500Y-15946071D01*
X11427500Y-16103214D01*
X11427500Y-15946071D02*
X11441786Y-15917500D01*
X11470357Y-15903214D01*
X11513214Y-15903214D01*
X11541786Y-15917500D01*
X11556071Y-15946071D01*
X11556071Y-16103214D01*
X11698928Y-16103214D02*
X11698928Y-15903214D01*
X11698928Y-15931786D02*
X11713214Y-15917500D01*
X11741786Y-15903214D01*
X11784643Y-15903214D01*
X11813214Y-15917500D01*
X11827500Y-15946071D01*
X11827500Y-16103214D01*
X11827500Y-15946071D02*
X11841786Y-15917500D01*
X11870357Y-15903214D01*
X11913214Y-15903214D01*
X11941786Y-15917500D01*
X11956071Y-15946071D01*
X11956071Y-16103214D01*
X12541786Y-15788929D02*
X12284643Y-16174643D01*
X12927500Y-15803214D02*
X12956071Y-15803214D01*
X12984643Y-15817500D01*
X12998928Y-15831786D01*
X13013214Y-15860357D01*
X13027500Y-15917500D01*
X13027500Y-15988929D01*
X13013214Y-16046071D01*
X12998928Y-16074643D01*
X12984643Y-16088929D01*
X12956071Y-16103214D01*
X12927500Y-16103214D01*
X12898928Y-16088929D01*
X12884643Y-16074643D01*
X12870357Y-16046071D01*
X12856071Y-15988929D01*
X12856071Y-15917500D01*
X12870357Y-15860357D01*
X12884643Y-15831786D01*
X12898928Y-15817500D01*
X12927500Y-15803214D01*
X13156071Y-16074643D02*
X13170357Y-16088929D01*
X13156071Y-16103214D01*
X13141786Y-16088929D01*
X13156071Y-16074643D01*
X13156071Y-16103214D01*
X13356071Y-15803214D02*
X13384643Y-15803214D01*
X13413214Y-15817500D01*
X13427500Y-15831786D01*
X13441786Y-15860357D01*
X13456071Y-15917500D01*
X13456071Y-15988929D01*
X13441786Y-16046071D01*
X13427500Y-16074643D01*
X13413214Y-16088929D01*
X13384643Y-16103214D01*
X13356071Y-16103214D01*
X13327500Y-16088929D01*
X13313214Y-16074643D01*
X13298928Y-16046071D01*
X13284643Y-15988929D01*
X13284643Y-15917500D01*
X13298928Y-15860357D01*
X13313214Y-15831786D01*
X13327500Y-15817500D01*
X13356071Y-15803214D01*
X13741786Y-16103214D02*
X13570357Y-16103214D01*
X13656071Y-16103214D02*
X13656071Y-15803214D01*
X13627500Y-15846071D01*
X13598928Y-15874643D01*
X13570357Y-15888929D01*
X13998928Y-15803214D02*
X13941786Y-15803214D01*
X13913214Y-15817500D01*
X13898928Y-15831786D01*
X13870357Y-15874643D01*
X13856071Y-15931786D01*
X13856071Y-16046071D01*
X13870357Y-16074643D01*
X13884643Y-16088929D01*
X13913214Y-16103214D01*
X13970357Y-16103214D01*
X13998928Y-16088929D01*
X14013214Y-16074643D01*
X14027500Y-16046071D01*
X14027500Y-15974643D01*
X14013214Y-15946071D01*
X13998928Y-15931786D01*
X13970357Y-15917500D01*
X13913214Y-15917500D01*
X13884643Y-15931786D01*
X13870357Y-15946071D01*
X13856071Y-15974643D01*
X14141786Y-15803214D02*
X14141786Y-15860357D01*
X14256071Y-15803214D02*
X14256071Y-15860357D01*
X14698928Y-16217500D02*
X14684643Y-16203214D01*
X14656071Y-16160357D01*
X14641786Y-16131786D01*
X14627500Y-16088929D01*
X14613214Y-16017500D01*
X14613214Y-15960357D01*
X14627500Y-15888929D01*
X14641786Y-15846071D01*
X14656071Y-15817500D01*
X14684643Y-15774643D01*
X14698928Y-15760357D01*
X14784643Y-15803214D02*
X14970357Y-15803214D01*
X14870357Y-15917500D01*
X14913214Y-15917500D01*
X14941786Y-15931786D01*
X14956071Y-15946071D01*
X14970357Y-15974643D01*
X14970357Y-16046071D01*
X14956071Y-16074643D01*
X14941786Y-16088929D01*
X14913214Y-16103214D01*
X14827500Y-16103214D01*
X14798928Y-16088929D01*
X14784643Y-16074643D01*
X15241786Y-15803214D02*
X15098928Y-15803214D01*
X15084643Y-15946071D01*
X15098928Y-15931786D01*
X15127500Y-15917500D01*
X15198928Y-15917500D01*
X15227500Y-15931786D01*
X15241786Y-15946071D01*
X15256071Y-15974643D01*
X15256071Y-16046071D01*
X15241786Y-16074643D01*
X15227500Y-16088929D01*
X15198928Y-16103214D01*
X15127500Y-16103214D01*
X15098928Y-16088929D01*
X15084643Y-16074643D01*
X15613214Y-16103214D02*
X15613214Y-15803214D01*
X15741786Y-16103214D02*
X15741786Y-15946071D01*
X15727500Y-15917500D01*
X15698928Y-15903214D01*
X15656071Y-15903214D01*
X15627500Y-15917500D01*
X15613214Y-15931786D01*
X15927500Y-16103214D02*
X15898928Y-16088929D01*
X15884643Y-16074643D01*
X15870357Y-16046071D01*
X15870357Y-15960357D01*
X15884643Y-15931786D01*
X15898928Y-15917500D01*
X15927500Y-15903214D01*
X15970357Y-15903214D01*
X15998928Y-15917500D01*
X16013214Y-15931786D01*
X16027500Y-15960357D01*
X16027500Y-16046071D01*
X16013214Y-16074643D01*
X15998928Y-16088929D01*
X15970357Y-16103214D01*
X15927500Y-16103214D01*
X16198928Y-16103214D02*
X16170357Y-16088929D01*
X16156071Y-16060357D01*
X16156071Y-15803214D01*
X16427500Y-16088929D02*
X16398928Y-16103214D01*
X16341786Y-16103214D01*
X16313214Y-16088929D01*
X16298928Y-16060357D01*
X16298928Y-15946071D01*
X16313214Y-15917500D01*
X16341786Y-15903214D01*
X16398928Y-15903214D01*
X16427500Y-15917500D01*
X16441786Y-15946071D01*
X16441786Y-15974643D01*
X16298928Y-16003214D01*
X16556071Y-16088929D02*
X16584643Y-16103214D01*
X16641786Y-16103214D01*
X16670357Y-16088929D01*
X16684643Y-16060357D01*
X16684643Y-16046071D01*
X16670357Y-16017500D01*
X16641786Y-16003214D01*
X16598928Y-16003214D01*
X16570357Y-15988929D01*
X16556071Y-15960357D01*
X16556071Y-15946071D01*
X16570357Y-15917500D01*
X16598928Y-15903214D01*
X16641786Y-15903214D01*
X16670357Y-15917500D01*
X16784643Y-16217500D02*
X16798928Y-16203214D01*
X16827500Y-16160357D01*
X16841786Y-16131786D01*
X16856071Y-16088929D01*
X16870357Y-16017500D01*
X16870357Y-15960357D01*
X16856071Y-15888929D01*
X16841786Y-15846071D01*
X16827500Y-15817500D01*
X16798928Y-15774643D01*
X16784643Y-15760357D01*
X10012500Y-16363500D02*
G75*
G03X10012500Y-16363500I-50000J0D01*
G01*
X10456071Y-16499214D02*
X10284643Y-16499214D01*
X10370357Y-16499214D02*
X10370357Y-16199214D01*
X10341786Y-16242071D01*
X10313214Y-16270643D01*
X10284643Y-16284929D01*
X10584643Y-16470643D02*
X10598928Y-16484929D01*
X10584643Y-16499214D01*
X10570357Y-16484929D01*
X10584643Y-16470643D01*
X10584643Y-16499214D01*
X10784643Y-16199214D02*
X10813214Y-16199214D01*
X10841786Y-16213500D01*
X10856071Y-16227786D01*
X10870357Y-16256357D01*
X10884643Y-16313500D01*
X10884643Y-16384929D01*
X10870357Y-16442071D01*
X10856071Y-16470643D01*
X10841786Y-16484929D01*
X10813214Y-16499214D01*
X10784643Y-16499214D01*
X10756071Y-16484929D01*
X10741786Y-16470643D01*
X10727500Y-16442071D01*
X10713214Y-16384929D01*
X10713214Y-16313500D01*
X10727500Y-16256357D01*
X10741786Y-16227786D01*
X10756071Y-16213500D01*
X10784643Y-16199214D01*
X11070357Y-16199214D02*
X11098928Y-16199214D01*
X11127500Y-16213500D01*
X11141786Y-16227786D01*
X11156071Y-16256357D01*
X11170357Y-16313500D01*
X11170357Y-16384929D01*
X11156071Y-16442071D01*
X11141786Y-16470643D01*
X11127500Y-16484929D01*
X11098928Y-16499214D01*
X11070357Y-16499214D01*
X11041786Y-16484929D01*
X11027500Y-16470643D01*
X11013214Y-16442071D01*
X10998928Y-16384929D01*
X10998928Y-16313500D01*
X11013214Y-16256357D01*
X11027500Y-16227786D01*
X11041786Y-16213500D01*
X11070357Y-16199214D01*
X11298928Y-16499214D02*
X11298928Y-16299214D01*
X11298928Y-16327786D02*
X11313214Y-16313500D01*
X11341786Y-16299214D01*
X11384643Y-16299214D01*
X11413214Y-16313500D01*
X11427500Y-16342071D01*
X11427500Y-16499214D01*
X11427500Y-16342071D02*
X11441786Y-16313500D01*
X11470357Y-16299214D01*
X11513214Y-16299214D01*
X11541786Y-16313500D01*
X11556071Y-16342071D01*
X11556071Y-16499214D01*
X11698928Y-16499214D02*
X11698928Y-16299214D01*
X11698928Y-16327786D02*
X11713214Y-16313500D01*
X11741786Y-16299214D01*
X11784643Y-16299214D01*
X11813214Y-16313500D01*
X11827500Y-16342071D01*
X11827500Y-16499214D01*
X11827500Y-16342071D02*
X11841786Y-16313500D01*
X11870357Y-16299214D01*
X11913214Y-16299214D01*
X11941786Y-16313500D01*
X11956071Y-16342071D01*
X11956071Y-16499214D01*
X12541786Y-16184929D02*
X12284643Y-16570643D01*
X12927500Y-16199214D02*
X12956071Y-16199214D01*
X12984643Y-16213500D01*
X12998928Y-16227786D01*
X13013214Y-16256357D01*
X13027500Y-16313500D01*
X13027500Y-16384929D01*
X13013214Y-16442071D01*
X12998928Y-16470643D01*
X12984643Y-16484929D01*
X12956071Y-16499214D01*
X12927500Y-16499214D01*
X12898928Y-16484929D01*
X12884643Y-16470643D01*
X12870357Y-16442071D01*
X12856071Y-16384929D01*
X12856071Y-16313500D01*
X12870357Y-16256357D01*
X12884643Y-16227786D01*
X12898928Y-16213500D01*
X12927500Y-16199214D01*
X13156071Y-16470643D02*
X13170357Y-16484929D01*
X13156071Y-16499214D01*
X13141786Y-16484929D01*
X13156071Y-16470643D01*
X13156071Y-16499214D01*
X13356071Y-16199214D02*
X13384643Y-16199214D01*
X13413214Y-16213500D01*
X13427500Y-16227786D01*
X13441786Y-16256357D01*
X13456071Y-16313500D01*
X13456071Y-16384929D01*
X13441786Y-16442071D01*
X13427500Y-16470643D01*
X13413214Y-16484929D01*
X13384643Y-16499214D01*
X13356071Y-16499214D01*
X13327500Y-16484929D01*
X13313214Y-16470643D01*
X13298928Y-16442071D01*
X13284643Y-16384929D01*
X13284643Y-16313500D01*
X13298928Y-16256357D01*
X13313214Y-16227786D01*
X13327500Y-16213500D01*
X13356071Y-16199214D01*
X13556071Y-16199214D02*
X13741786Y-16199214D01*
X13641786Y-16313500D01*
X13684643Y-16313500D01*
X13713214Y-16327786D01*
X13727500Y-16342071D01*
X13741786Y-16370643D01*
X13741786Y-16442071D01*
X13727500Y-16470643D01*
X13713214Y-16484929D01*
X13684643Y-16499214D01*
X13598928Y-16499214D01*
X13570357Y-16484929D01*
X13556071Y-16470643D01*
X13884643Y-16499214D02*
X13941786Y-16499214D01*
X13970357Y-16484929D01*
X13984643Y-16470643D01*
X14013214Y-16427786D01*
X14027500Y-16370643D01*
X14027500Y-16256357D01*
X14013214Y-16227786D01*
X13998928Y-16213500D01*
X13970357Y-16199214D01*
X13913214Y-16199214D01*
X13884643Y-16213500D01*
X13870357Y-16227786D01*
X13856071Y-16256357D01*
X13856071Y-16327786D01*
X13870357Y-16356357D01*
X13884643Y-16370643D01*
X13913214Y-16384929D01*
X13970357Y-16384929D01*
X13998928Y-16370643D01*
X14013214Y-16356357D01*
X14027500Y-16327786D01*
X14141786Y-16199214D02*
X14141786Y-16256357D01*
X14256071Y-16199214D02*
X14256071Y-16256357D01*
X14698928Y-16613500D02*
X14684643Y-16599214D01*
X14656071Y-16556357D01*
X14641786Y-16527786D01*
X14627500Y-16484929D01*
X14613214Y-16413500D01*
X14613214Y-16356357D01*
X14627500Y-16284929D01*
X14641786Y-16242071D01*
X14656071Y-16213500D01*
X14684643Y-16170643D01*
X14698928Y-16156357D01*
X14784643Y-16199214D02*
X14970357Y-16199214D01*
X14870357Y-16313500D01*
X14913214Y-16313500D01*
X14941786Y-16327786D01*
X14956071Y-16342071D01*
X14970357Y-16370643D01*
X14970357Y-16442071D01*
X14956071Y-16470643D01*
X14941786Y-16484929D01*
X14913214Y-16499214D01*
X14827500Y-16499214D01*
X14798928Y-16484929D01*
X14784643Y-16470643D01*
X15327500Y-16499214D02*
X15327500Y-16199214D01*
X15456071Y-16499214D02*
X15456071Y-16342071D01*
X15441786Y-16313500D01*
X15413214Y-16299214D01*
X15370357Y-16299214D01*
X15341786Y-16313500D01*
X15327500Y-16327786D01*
X15641786Y-16499214D02*
X15613214Y-16484929D01*
X15598928Y-16470643D01*
X15584643Y-16442071D01*
X15584643Y-16356357D01*
X15598928Y-16327786D01*
X15613214Y-16313500D01*
X15641786Y-16299214D01*
X15684643Y-16299214D01*
X15713214Y-16313500D01*
X15727500Y-16327786D01*
X15741786Y-16356357D01*
X15741786Y-16442071D01*
X15727500Y-16470643D01*
X15713214Y-16484929D01*
X15684643Y-16499214D01*
X15641786Y-16499214D01*
X15913214Y-16499214D02*
X15884643Y-16484929D01*
X15870357Y-16456357D01*
X15870357Y-16199214D01*
X16141786Y-16484929D02*
X16113214Y-16499214D01*
X16056071Y-16499214D01*
X16027500Y-16484929D01*
X16013214Y-16456357D01*
X16013214Y-16342071D01*
X16027500Y-16313500D01*
X16056071Y-16299214D01*
X16113214Y-16299214D01*
X16141786Y-16313500D01*
X16156071Y-16342071D01*
X16156071Y-16370643D01*
X16013214Y-16399214D01*
X16270357Y-16484929D02*
X16298928Y-16499214D01*
X16356071Y-16499214D01*
X16384643Y-16484929D01*
X16398928Y-16456357D01*
X16398928Y-16442071D01*
X16384643Y-16413500D01*
X16356071Y-16399214D01*
X16313214Y-16399214D01*
X16284643Y-16384929D01*
X16270357Y-16356357D01*
X16270357Y-16342071D01*
X16284643Y-16313500D01*
X16313214Y-16299214D01*
X16356071Y-16299214D01*
X16384643Y-16313500D01*
X16498928Y-16613500D02*
X16513214Y-16599214D01*
X16541786Y-16556357D01*
X16556071Y-16527786D01*
X16570357Y-16484929D01*
X16584643Y-16413500D01*
X16584643Y-16356357D01*
X16570357Y-16284929D01*
X16556071Y-16242071D01*
X16541786Y-16213500D01*
X16513214Y-16170643D01*
X16498928Y-16156357D01*
X9961700Y-16708700D02*
X9961700Y-16810300D01*
X9910900Y-16759500D02*
X10012500Y-16759500D01*
X10456071Y-16895214D02*
X10284643Y-16895214D01*
X10370357Y-16895214D02*
X10370357Y-16595214D01*
X10341786Y-16638071D01*
X10313214Y-16666643D01*
X10284643Y-16680929D01*
X10584643Y-16866643D02*
X10598928Y-16880929D01*
X10584643Y-16895214D01*
X10570357Y-16880929D01*
X10584643Y-16866643D01*
X10584643Y-16895214D01*
X10784643Y-16595214D02*
X10813214Y-16595214D01*
X10841786Y-16609500D01*
X10856071Y-16623786D01*
X10870357Y-16652357D01*
X10884643Y-16709500D01*
X10884643Y-16780929D01*
X10870357Y-16838072D01*
X10856071Y-16866643D01*
X10841786Y-16880929D01*
X10813214Y-16895214D01*
X10784643Y-16895214D01*
X10756071Y-16880929D01*
X10741786Y-16866643D01*
X10727500Y-16838072D01*
X10713214Y-16780929D01*
X10713214Y-16709500D01*
X10727500Y-16652357D01*
X10741786Y-16623786D01*
X10756071Y-16609500D01*
X10784643Y-16595214D01*
X10998928Y-16623786D02*
X11013214Y-16609500D01*
X11041786Y-16595214D01*
X11113214Y-16595214D01*
X11141786Y-16609500D01*
X11156071Y-16623786D01*
X11170357Y-16652357D01*
X11170357Y-16680929D01*
X11156071Y-16723786D01*
X10984643Y-16895214D01*
X11170357Y-16895214D01*
X11298928Y-16895214D02*
X11298928Y-16695214D01*
X11298928Y-16723786D02*
X11313214Y-16709500D01*
X11341786Y-16695214D01*
X11384643Y-16695214D01*
X11413214Y-16709500D01*
X11427500Y-16738071D01*
X11427500Y-16895214D01*
X11427500Y-16738071D02*
X11441786Y-16709500D01*
X11470357Y-16695214D01*
X11513214Y-16695214D01*
X11541786Y-16709500D01*
X11556071Y-16738071D01*
X11556071Y-16895214D01*
X11698928Y-16895214D02*
X11698928Y-16695214D01*
X11698928Y-16723786D02*
X11713214Y-16709500D01*
X11741786Y-16695214D01*
X11784643Y-16695214D01*
X11813214Y-16709500D01*
X11827500Y-16738071D01*
X11827500Y-16895214D01*
X11827500Y-16738071D02*
X11841786Y-16709500D01*
X11870357Y-16695214D01*
X11913214Y-16695214D01*
X11941786Y-16709500D01*
X11956071Y-16738071D01*
X11956071Y-16895214D01*
X12541786Y-16580929D02*
X12284643Y-16966643D01*
X12927500Y-16595214D02*
X12956071Y-16595214D01*
X12984643Y-16609500D01*
X12998928Y-16623786D01*
X13013214Y-16652357D01*
X13027500Y-16709500D01*
X13027500Y-16780929D01*
X13013214Y-16838072D01*
X12998928Y-16866643D01*
X12984643Y-16880929D01*
X12956071Y-16895214D01*
X12927500Y-16895214D01*
X12898928Y-16880929D01*
X12884643Y-16866643D01*
X12870357Y-16838072D01*
X12856071Y-16780929D01*
X12856071Y-16709500D01*
X12870357Y-16652357D01*
X12884643Y-16623786D01*
X12898928Y-16609500D01*
X12927500Y-16595214D01*
X13156071Y-16866643D02*
X13170357Y-16880929D01*
X13156071Y-16895214D01*
X13141786Y-16880929D01*
X13156071Y-16866643D01*
X13156071Y-16895214D01*
X13356071Y-16595214D02*
X13384643Y-16595214D01*
X13413214Y-16609500D01*
X13427500Y-16623786D01*
X13441786Y-16652357D01*
X13456071Y-16709500D01*
X13456071Y-16780929D01*
X13441786Y-16838072D01*
X13427500Y-16866643D01*
X13413214Y-16880929D01*
X13384643Y-16895214D01*
X13356071Y-16895214D01*
X13327500Y-16880929D01*
X13313214Y-16866643D01*
X13298928Y-16838072D01*
X13284643Y-16780929D01*
X13284643Y-16709500D01*
X13298928Y-16652357D01*
X13313214Y-16623786D01*
X13327500Y-16609500D01*
X13356071Y-16595214D01*
X13713214Y-16695214D02*
X13713214Y-16895214D01*
X13641786Y-16580929D02*
X13570357Y-16795214D01*
X13756071Y-16795214D01*
X13927500Y-16595214D02*
X13956071Y-16595214D01*
X13984643Y-16609500D01*
X13998928Y-16623786D01*
X14013214Y-16652357D01*
X14027500Y-16709500D01*
X14027500Y-16780929D01*
X14013214Y-16838072D01*
X13998928Y-16866643D01*
X13984643Y-16880929D01*
X13956071Y-16895214D01*
X13927500Y-16895214D01*
X13898928Y-16880929D01*
X13884643Y-16866643D01*
X13870357Y-16838072D01*
X13856071Y-16780929D01*
X13856071Y-16709500D01*
X13870357Y-16652357D01*
X13884643Y-16623786D01*
X13898928Y-16609500D01*
X13927500Y-16595214D01*
X14141786Y-16595214D02*
X14141786Y-16652357D01*
X14256071Y-16595214D02*
X14256071Y-16652357D01*
X14698928Y-17009500D02*
X14684643Y-16995214D01*
X14656071Y-16952357D01*
X14641786Y-16923786D01*
X14627500Y-16880929D01*
X14613214Y-16809500D01*
X14613214Y-16752357D01*
X14627500Y-16680929D01*
X14641786Y-16638071D01*
X14656071Y-16609500D01*
X14684643Y-16566643D01*
X14698928Y-16552357D01*
X14856071Y-16723786D02*
X14827500Y-16709500D01*
X14813214Y-16695214D01*
X14798928Y-16666643D01*
X14798928Y-16652357D01*
X14813214Y-16623786D01*
X14827500Y-16609500D01*
X14856071Y-16595214D01*
X14913214Y-16595214D01*
X14941786Y-16609500D01*
X14956071Y-16623786D01*
X14970357Y-16652357D01*
X14970357Y-16666643D01*
X14956071Y-16695214D01*
X14941786Y-16709500D01*
X14913214Y-16723786D01*
X14856071Y-16723786D01*
X14827500Y-16738071D01*
X14813214Y-16752357D01*
X14798928Y-16780929D01*
X14798928Y-16838072D01*
X14813214Y-16866643D01*
X14827500Y-16880929D01*
X14856071Y-16895214D01*
X14913214Y-16895214D01*
X14941786Y-16880929D01*
X14956071Y-16866643D01*
X14970357Y-16838072D01*
X14970357Y-16780929D01*
X14956071Y-16752357D01*
X14941786Y-16738071D01*
X14913214Y-16723786D01*
X15327500Y-16895214D02*
X15327500Y-16595214D01*
X15456071Y-16895214D02*
X15456071Y-16738071D01*
X15441786Y-16709500D01*
X15413214Y-16695214D01*
X15370357Y-16695214D01*
X15341786Y-16709500D01*
X15327500Y-16723786D01*
X15641786Y-16895214D02*
X15613214Y-16880929D01*
X15598928Y-16866643D01*
X15584643Y-16838072D01*
X15584643Y-16752357D01*
X15598928Y-16723786D01*
X15613214Y-16709500D01*
X15641786Y-16695214D01*
X15684643Y-16695214D01*
X15713214Y-16709500D01*
X15727500Y-16723786D01*
X15741786Y-16752357D01*
X15741786Y-16838072D01*
X15727500Y-16866643D01*
X15713214Y-16880929D01*
X15684643Y-16895214D01*
X15641786Y-16895214D01*
X15913214Y-16895214D02*
X15884643Y-16880929D01*
X15870357Y-16852357D01*
X15870357Y-16595214D01*
X16141786Y-16880929D02*
X16113214Y-16895214D01*
X16056071Y-16895214D01*
X16027500Y-16880929D01*
X16013214Y-16852357D01*
X16013214Y-16738071D01*
X16027500Y-16709500D01*
X16056071Y-16695214D01*
X16113214Y-16695214D01*
X16141786Y-16709500D01*
X16156071Y-16738071D01*
X16156071Y-16766643D01*
X16013214Y-16795214D01*
X16270357Y-16880929D02*
X16298928Y-16895214D01*
X16356071Y-16895214D01*
X16384643Y-16880929D01*
X16398928Y-16852357D01*
X16398928Y-16838072D01*
X16384643Y-16809500D01*
X16356071Y-16795214D01*
X16313214Y-16795214D01*
X16284643Y-16780929D01*
X16270357Y-16752357D01*
X16270357Y-16738071D01*
X16284643Y-16709500D01*
X16313214Y-16695214D01*
X16356071Y-16695214D01*
X16384643Y-16709500D01*
X16498928Y-17009500D02*
X16513214Y-16995214D01*
X16541786Y-16952357D01*
X16556071Y-16923786D01*
X16570357Y-16880929D01*
X16584643Y-16809500D01*
X16584643Y-16752357D01*
X16570357Y-16680929D01*
X16556071Y-16638071D01*
X16541786Y-16609500D01*
X16513214Y-16566643D01*
X16498928Y-16552357D01*
X9986140Y-17219140D02*
X9986140Y-17091860D01*
X9858860Y-17091860D01*
X9858860Y-17219140D01*
X9986140Y-17219140D01*
X10456071Y-17291214D02*
X10284643Y-17291214D01*
X10370357Y-17291214D02*
X10370357Y-16991214D01*
X10341786Y-17034072D01*
X10313214Y-17062643D01*
X10284643Y-17076929D01*
X10584643Y-17262643D02*
X10598928Y-17276929D01*
X10584643Y-17291214D01*
X10570357Y-17276929D01*
X10584643Y-17262643D01*
X10584643Y-17291214D01*
X10770357Y-17119786D02*
X10741786Y-17105500D01*
X10727500Y-17091214D01*
X10713214Y-17062643D01*
X10713214Y-17048357D01*
X10727500Y-17019786D01*
X10741786Y-17005500D01*
X10770357Y-16991214D01*
X10827500Y-16991214D01*
X10856071Y-17005500D01*
X10870357Y-17019786D01*
X10884643Y-17048357D01*
X10884643Y-17062643D01*
X10870357Y-17091214D01*
X10856071Y-17105500D01*
X10827500Y-17119786D01*
X10770357Y-17119786D01*
X10741786Y-17134072D01*
X10727500Y-17148357D01*
X10713214Y-17176929D01*
X10713214Y-17234072D01*
X10727500Y-17262643D01*
X10741786Y-17276929D01*
X10770357Y-17291214D01*
X10827500Y-17291214D01*
X10856071Y-17276929D01*
X10870357Y-17262643D01*
X10884643Y-17234072D01*
X10884643Y-17176929D01*
X10870357Y-17148357D01*
X10856071Y-17134072D01*
X10827500Y-17119786D01*
X11070357Y-16991214D02*
X11098928Y-16991214D01*
X11127500Y-17005500D01*
X11141786Y-17019786D01*
X11156071Y-17048357D01*
X11170357Y-17105500D01*
X11170357Y-17176929D01*
X11156071Y-17234072D01*
X11141786Y-17262643D01*
X11127500Y-17276929D01*
X11098928Y-17291214D01*
X11070357Y-17291214D01*
X11041786Y-17276929D01*
X11027500Y-17262643D01*
X11013214Y-17234072D01*
X10998928Y-17176929D01*
X10998928Y-17105500D01*
X11013214Y-17048357D01*
X11027500Y-17019786D01*
X11041786Y-17005500D01*
X11070357Y-16991214D01*
X11298928Y-17291214D02*
X11298928Y-17091214D01*
X11298928Y-17119786D02*
X11313214Y-17105500D01*
X11341786Y-17091214D01*
X11384643Y-17091214D01*
X11413214Y-17105500D01*
X11427500Y-17134072D01*
X11427500Y-17291214D01*
X11427500Y-17134072D02*
X11441786Y-17105500D01*
X11470357Y-17091214D01*
X11513214Y-17091214D01*
X11541786Y-17105500D01*
X11556071Y-17134072D01*
X11556071Y-17291214D01*
X11698928Y-17291214D02*
X11698928Y-17091214D01*
X11698928Y-17119786D02*
X11713214Y-17105500D01*
X11741786Y-17091214D01*
X11784643Y-17091214D01*
X11813214Y-17105500D01*
X11827500Y-17134072D01*
X11827500Y-17291214D01*
X11827500Y-17134072D02*
X11841786Y-17105500D01*
X11870357Y-17091214D01*
X11913214Y-17091214D01*
X11941786Y-17105500D01*
X11956071Y-17134072D01*
X11956071Y-17291214D01*
X12541786Y-16976929D02*
X12284643Y-17362643D01*
X12927500Y-16991214D02*
X12956071Y-16991214D01*
X12984643Y-17005500D01*
X12998928Y-17019786D01*
X13013214Y-17048357D01*
X13027500Y-17105500D01*
X13027500Y-17176929D01*
X13013214Y-17234072D01*
X12998928Y-17262643D01*
X12984643Y-17276929D01*
X12956071Y-17291214D01*
X12927500Y-17291214D01*
X12898928Y-17276929D01*
X12884643Y-17262643D01*
X12870357Y-17234072D01*
X12856071Y-17176929D01*
X12856071Y-17105500D01*
X12870357Y-17048357D01*
X12884643Y-17019786D01*
X12898928Y-17005500D01*
X12927500Y-16991214D01*
X13156071Y-17262643D02*
X13170357Y-17276929D01*
X13156071Y-17291214D01*
X13141786Y-17276929D01*
X13156071Y-17262643D01*
X13156071Y-17291214D01*
X13356071Y-16991214D02*
X13384643Y-16991214D01*
X13413214Y-17005500D01*
X13427500Y-17019786D01*
X13441786Y-17048357D01*
X13456071Y-17105500D01*
X13456071Y-17176929D01*
X13441786Y-17234072D01*
X13427500Y-17262643D01*
X13413214Y-17276929D01*
X13384643Y-17291214D01*
X13356071Y-17291214D01*
X13327500Y-17276929D01*
X13313214Y-17262643D01*
X13298928Y-17234072D01*
X13284643Y-17176929D01*
X13284643Y-17105500D01*
X13298928Y-17048357D01*
X13313214Y-17019786D01*
X13327500Y-17005500D01*
X13356071Y-16991214D01*
X13556071Y-16991214D02*
X13756071Y-16991214D01*
X13627500Y-17291214D01*
X14027500Y-17291214D02*
X13856071Y-17291214D01*
X13941786Y-17291214D02*
X13941786Y-16991214D01*
X13913214Y-17034072D01*
X13884643Y-17062643D01*
X13856071Y-17076929D01*
X14141786Y-16991214D02*
X14141786Y-17048357D01*
X14256071Y-16991214D02*
X14256071Y-17048357D01*
X14698928Y-17405500D02*
X14684643Y-17391214D01*
X14656071Y-17348357D01*
X14641786Y-17319786D01*
X14627500Y-17276929D01*
X14613214Y-17205500D01*
X14613214Y-17148357D01*
X14627500Y-17076929D01*
X14641786Y-17034072D01*
X14656071Y-17005500D01*
X14684643Y-16962643D01*
X14698928Y-16948357D01*
X14970357Y-17291214D02*
X14798928Y-17291214D01*
X14884643Y-17291214D02*
X14884643Y-16991214D01*
X14856071Y-17034072D01*
X14827500Y-17062643D01*
X14798928Y-17076929D01*
X15141786Y-17119786D02*
X15113214Y-17105500D01*
X15098928Y-17091214D01*
X15084643Y-17062643D01*
X15084643Y-17048357D01*
X15098928Y-17019786D01*
X15113214Y-17005500D01*
X15141786Y-16991214D01*
X15198928Y-16991214D01*
X15227500Y-17005500D01*
X15241786Y-17019786D01*
X15256071Y-17048357D01*
X15256071Y-17062643D01*
X15241786Y-17091214D01*
X15227500Y-17105500D01*
X15198928Y-17119786D01*
X15141786Y-17119786D01*
X15113214Y-17134072D01*
X15098928Y-17148357D01*
X15084643Y-17176929D01*
X15084643Y-17234072D01*
X15098928Y-17262643D01*
X15113214Y-17276929D01*
X15141786Y-17291214D01*
X15198928Y-17291214D01*
X15227500Y-17276929D01*
X15241786Y-17262643D01*
X15256071Y-17234072D01*
X15256071Y-17176929D01*
X15241786Y-17148357D01*
X15227500Y-17134072D01*
X15198928Y-17119786D01*
X15613214Y-17291214D02*
X15613214Y-16991214D01*
X15741786Y-17291214D02*
X15741786Y-17134072D01*
X15727500Y-17105500D01*
X15698928Y-17091214D01*
X15656071Y-17091214D01*
X15627500Y-17105500D01*
X15613214Y-17119786D01*
X15927500Y-17291214D02*
X15898928Y-17276929D01*
X15884643Y-17262643D01*
X15870357Y-17234072D01*
X15870357Y-17148357D01*
X15884643Y-17119786D01*
X15898928Y-17105500D01*
X15927500Y-17091214D01*
X15970357Y-17091214D01*
X15998928Y-17105500D01*
X16013214Y-17119786D01*
X16027500Y-17148357D01*
X16027500Y-17234072D01*
X16013214Y-17262643D01*
X15998928Y-17276929D01*
X15970357Y-17291214D01*
X15927500Y-17291214D01*
X16198928Y-17291214D02*
X16170357Y-17276929D01*
X16156071Y-17248357D01*
X16156071Y-16991214D01*
X16427500Y-17276929D02*
X16398928Y-17291214D01*
X16341786Y-17291214D01*
X16313214Y-17276929D01*
X16298928Y-17248357D01*
X16298928Y-17134072D01*
X16313214Y-17105500D01*
X16341786Y-17091214D01*
X16398928Y-17091214D01*
X16427500Y-17105500D01*
X16441786Y-17134072D01*
X16441786Y-17162643D01*
X16298928Y-17191214D01*
X16556071Y-17276929D02*
X16584643Y-17291214D01*
X16641786Y-17291214D01*
X16670357Y-17276929D01*
X16684643Y-17248357D01*
X16684643Y-17234072D01*
X16670357Y-17205500D01*
X16641786Y-17191214D01*
X16598928Y-17191214D01*
X16570357Y-17176929D01*
X16556071Y-17148357D01*
X16556071Y-17134072D01*
X16570357Y-17105500D01*
X16598928Y-17091214D01*
X16641786Y-17091214D01*
X16670357Y-17105500D01*
X16784643Y-17405500D02*
X16798928Y-17391214D01*
X16827500Y-17348357D01*
X16841786Y-17319786D01*
X16856071Y-17276929D01*
X16870357Y-17205500D01*
X16870357Y-17148357D01*
X16856071Y-17076929D01*
X16841786Y-17034072D01*
X16827500Y-17005500D01*
X16798928Y-16962643D01*
X16784643Y-16948357D01*
X9852500Y-17711500D02*
X10012500Y-17551500D01*
X9852500Y-17391500D01*
X9692500Y-17551500D01*
X9852500Y-17711500D01*
X10270357Y-17387214D02*
X10456071Y-17387214D01*
X10356071Y-17501500D01*
X10398928Y-17501500D01*
X10427500Y-17515786D01*
X10441786Y-17530072D01*
X10456071Y-17558643D01*
X10456071Y-17630072D01*
X10441786Y-17658643D01*
X10427500Y-17672929D01*
X10398928Y-17687214D01*
X10313214Y-17687214D01*
X10284643Y-17672929D01*
X10270357Y-17658643D01*
X10584643Y-17658643D02*
X10598928Y-17672929D01*
X10584643Y-17687214D01*
X10570357Y-17672929D01*
X10584643Y-17658643D01*
X10584643Y-17687214D01*
X10713214Y-17415786D02*
X10727500Y-17401500D01*
X10756071Y-17387214D01*
X10827500Y-17387214D01*
X10856071Y-17401500D01*
X10870357Y-17415786D01*
X10884643Y-17444357D01*
X10884643Y-17472929D01*
X10870357Y-17515786D01*
X10698928Y-17687214D01*
X10884643Y-17687214D01*
X11070357Y-17387214D02*
X11098928Y-17387214D01*
X11127500Y-17401500D01*
X11141786Y-17415786D01*
X11156071Y-17444357D01*
X11170357Y-17501500D01*
X11170357Y-17572929D01*
X11156071Y-17630072D01*
X11141786Y-17658643D01*
X11127500Y-17672929D01*
X11098928Y-17687214D01*
X11070357Y-17687214D01*
X11041786Y-17672929D01*
X11027500Y-17658643D01*
X11013214Y-17630072D01*
X10998928Y-17572929D01*
X10998928Y-17501500D01*
X11013214Y-17444357D01*
X11027500Y-17415786D01*
X11041786Y-17401500D01*
X11070357Y-17387214D01*
X11298928Y-17687214D02*
X11298928Y-17487214D01*
X11298928Y-17515786D02*
X11313214Y-17501500D01*
X11341786Y-17487214D01*
X11384643Y-17487214D01*
X11413214Y-17501500D01*
X11427500Y-17530072D01*
X11427500Y-17687214D01*
X11427500Y-17530072D02*
X11441786Y-17501500D01*
X11470357Y-17487214D01*
X11513214Y-17487214D01*
X11541786Y-17501500D01*
X11556071Y-17530072D01*
X11556071Y-17687214D01*
X11698928Y-17687214D02*
X11698928Y-17487214D01*
X11698928Y-17515786D02*
X11713214Y-17501500D01*
X11741786Y-17487214D01*
X11784643Y-17487214D01*
X11813214Y-17501500D01*
X11827500Y-17530072D01*
X11827500Y-17687214D01*
X11827500Y-17530072D02*
X11841786Y-17501500D01*
X11870357Y-17487214D01*
X11913214Y-17487214D01*
X11941786Y-17501500D01*
X11956071Y-17530072D01*
X11956071Y-17687214D01*
X12541786Y-17372929D02*
X12284643Y-17758643D01*
X12927500Y-17387214D02*
X12956071Y-17387214D01*
X12984643Y-17401500D01*
X12998928Y-17415786D01*
X13013214Y-17444357D01*
X13027500Y-17501500D01*
X13027500Y-17572929D01*
X13013214Y-17630072D01*
X12998928Y-17658643D01*
X12984643Y-17672929D01*
X12956071Y-17687214D01*
X12927500Y-17687214D01*
X12898928Y-17672929D01*
X12884643Y-17658643D01*
X12870357Y-17630072D01*
X12856071Y-17572929D01*
X12856071Y-17501500D01*
X12870357Y-17444357D01*
X12884643Y-17415786D01*
X12898928Y-17401500D01*
X12927500Y-17387214D01*
X13156071Y-17658643D02*
X13170357Y-17672929D01*
X13156071Y-17687214D01*
X13141786Y-17672929D01*
X13156071Y-17658643D01*
X13156071Y-17687214D01*
X13456071Y-17687214D02*
X13284643Y-17687214D01*
X13370357Y-17687214D02*
X13370357Y-17387214D01*
X13341786Y-17430072D01*
X13313214Y-17458643D01*
X13284643Y-17472929D01*
X13570357Y-17415786D02*
X13584643Y-17401500D01*
X13613214Y-17387214D01*
X13684643Y-17387214D01*
X13713214Y-17401500D01*
X13727500Y-17415786D01*
X13741786Y-17444357D01*
X13741786Y-17472929D01*
X13727500Y-17515786D01*
X13556071Y-17687214D01*
X13741786Y-17687214D01*
X13998928Y-17387214D02*
X13941786Y-17387214D01*
X13913214Y-17401500D01*
X13898928Y-17415786D01*
X13870357Y-17458643D01*
X13856071Y-17515786D01*
X13856071Y-17630072D01*
X13870357Y-17658643D01*
X13884643Y-17672929D01*
X13913214Y-17687214D01*
X13970357Y-17687214D01*
X13998928Y-17672929D01*
X14013214Y-17658643D01*
X14027500Y-17630072D01*
X14027500Y-17558643D01*
X14013214Y-17530072D01*
X13998928Y-17515786D01*
X13970357Y-17501500D01*
X13913214Y-17501500D01*
X13884643Y-17515786D01*
X13870357Y-17530072D01*
X13856071Y-17558643D01*
X14141786Y-17387214D02*
X14141786Y-17444357D01*
X14256071Y-17387214D02*
X14256071Y-17444357D01*
X14698928Y-17801500D02*
X14684643Y-17787214D01*
X14656071Y-17744357D01*
X14641786Y-17715786D01*
X14627500Y-17672929D01*
X14613214Y-17601500D01*
X14613214Y-17544357D01*
X14627500Y-17472929D01*
X14641786Y-17430072D01*
X14656071Y-17401500D01*
X14684643Y-17358643D01*
X14698928Y-17344357D01*
X14941786Y-17487214D02*
X14941786Y-17687214D01*
X14870357Y-17372929D02*
X14798928Y-17587214D01*
X14984643Y-17587214D01*
X15327500Y-17687214D02*
X15327500Y-17387214D01*
X15456071Y-17687214D02*
X15456071Y-17530072D01*
X15441786Y-17501500D01*
X15413214Y-17487214D01*
X15370357Y-17487214D01*
X15341786Y-17501500D01*
X15327500Y-17515786D01*
X15641786Y-17687214D02*
X15613214Y-17672929D01*
X15598928Y-17658643D01*
X15584643Y-17630072D01*
X15584643Y-17544357D01*
X15598928Y-17515786D01*
X15613214Y-17501500D01*
X15641786Y-17487214D01*
X15684643Y-17487214D01*
X15713214Y-17501500D01*
X15727500Y-17515786D01*
X15741786Y-17544357D01*
X15741786Y-17630072D01*
X15727500Y-17658643D01*
X15713214Y-17672929D01*
X15684643Y-17687214D01*
X15641786Y-17687214D01*
X15913214Y-17687214D02*
X15884643Y-17672929D01*
X15870357Y-17644357D01*
X15870357Y-17387214D01*
X16141786Y-17672929D02*
X16113214Y-17687214D01*
X16056071Y-17687214D01*
X16027500Y-17672929D01*
X16013214Y-17644357D01*
X16013214Y-17530072D01*
X16027500Y-17501500D01*
X16056071Y-17487214D01*
X16113214Y-17487214D01*
X16141786Y-17501500D01*
X16156071Y-17530072D01*
X16156071Y-17558643D01*
X16013214Y-17587214D01*
X16270357Y-17672929D02*
X16298928Y-17687214D01*
X16356071Y-17687214D01*
X16384643Y-17672929D01*
X16398928Y-17644357D01*
X16398928Y-17630072D01*
X16384643Y-17601500D01*
X16356071Y-17587214D01*
X16313214Y-17587214D01*
X16284643Y-17572929D01*
X16270357Y-17544357D01*
X16270357Y-17530072D01*
X16284643Y-17501500D01*
X16313214Y-17487214D01*
X16356071Y-17487214D01*
X16384643Y-17501500D01*
X16498928Y-17801500D02*
X16513214Y-17787214D01*
X16541786Y-17744357D01*
X16556071Y-17715786D01*
X16570357Y-17672929D01*
X16584643Y-17601500D01*
X16584643Y-17544357D01*
X16570357Y-17472929D01*
X16556071Y-17430072D01*
X16541786Y-17401500D01*
X16513214Y-17358643D01*
X16498928Y-17344357D01*
M02*
