%FSLAX45Y45*%
G04 Gerber Fmt 4.5, Leading zero omitted, Abs format (unit mm)*
G04 Created by KiCad (PCBNEW no-vcs-found) date Mon Oct  9 11:26:29 2017*
%MOMM*%
%LPD*%
G01*
G04 APERTURE LIST*
%ADD10C,0.150000*%
%ADD11C,0.200000*%
%ADD12C,0.300000*%
G04 APERTURE END LIST*
D10*
X17080000Y-10020000D02*
G75*
G02X17480000Y-10420000I0J-400000D01*
G01*
X17480000Y-14580000D02*
G75*
G02X17080000Y-14980000I-400000J0D01*
G01*
X10420000Y-15000000D02*
G75*
G02X10020000Y-14600000I0J400000D01*
G01*
X10420000Y-10020000D02*
G75*
G03X10020000Y-10420000I0J-400000D01*
G01*
X17480000Y-14580000D02*
X17480000Y-10420000D01*
X10420000Y-15000000D02*
X17080000Y-14980000D01*
X10020000Y-10420000D02*
X10020000Y-14600000D01*
X10420000Y-10020000D02*
X17080000Y-10020000D01*
D11*
X10120000Y-11050000D02*
X10420000Y-11350000D01*
X10420000Y-11050000D02*
X10120000Y-11350000D01*
X17080000Y-11260000D02*
X17380000Y-11560000D01*
X17380000Y-11260000D02*
X17080000Y-11560000D01*
X10120000Y-12140000D02*
X10420000Y-12440000D01*
X10420000Y-12140000D02*
X10120000Y-12440000D01*
X17080000Y-12350000D02*
X17380000Y-12650000D01*
X17380000Y-12350000D02*
X17080000Y-12650000D01*
X17080000Y-13610000D02*
X17380000Y-13910000D01*
X17380000Y-13610000D02*
X17080000Y-13910000D01*
D12*
X10298928Y-15473214D02*
X10298928Y-15173214D01*
X10370357Y-15173214D01*
X10413214Y-15187500D01*
X10441786Y-15216071D01*
X10456071Y-15244643D01*
X10470357Y-15301786D01*
X10470357Y-15344643D01*
X10456071Y-15401786D01*
X10441786Y-15430357D01*
X10413214Y-15458929D01*
X10370357Y-15473214D01*
X10298928Y-15473214D01*
X10598928Y-15473214D02*
X10598928Y-15273214D01*
X10598928Y-15330357D02*
X10613214Y-15301786D01*
X10627500Y-15287500D01*
X10656071Y-15273214D01*
X10684643Y-15273214D01*
X10784643Y-15473214D02*
X10784643Y-15273214D01*
X10784643Y-15173214D02*
X10770357Y-15187500D01*
X10784643Y-15201786D01*
X10798928Y-15187500D01*
X10784643Y-15173214D01*
X10784643Y-15201786D01*
X10970357Y-15473214D02*
X10941786Y-15458929D01*
X10927500Y-15430357D01*
X10927500Y-15173214D01*
X11127500Y-15473214D02*
X11098928Y-15458929D01*
X11084643Y-15430357D01*
X11084643Y-15173214D01*
X11470357Y-15473214D02*
X11470357Y-15173214D01*
X11570357Y-15387500D01*
X11670357Y-15173214D01*
X11670357Y-15473214D01*
X11941786Y-15473214D02*
X11941786Y-15316071D01*
X11927500Y-15287500D01*
X11898928Y-15273214D01*
X11841786Y-15273214D01*
X11813214Y-15287500D01*
X11941786Y-15458929D02*
X11913214Y-15473214D01*
X11841786Y-15473214D01*
X11813214Y-15458929D01*
X11798928Y-15430357D01*
X11798928Y-15401786D01*
X11813214Y-15373214D01*
X11841786Y-15358929D01*
X11913214Y-15358929D01*
X11941786Y-15344643D01*
X12084643Y-15273214D02*
X12084643Y-15573214D01*
X12084643Y-15287500D02*
X12113214Y-15273214D01*
X12170357Y-15273214D01*
X12198928Y-15287500D01*
X12213214Y-15301786D01*
X12227500Y-15330357D01*
X12227500Y-15416071D01*
X12213214Y-15444643D01*
X12198928Y-15458929D01*
X12170357Y-15473214D01*
X12113214Y-15473214D01*
X12084643Y-15458929D01*
X12356071Y-15444643D02*
X12370357Y-15458929D01*
X12356071Y-15473214D01*
X12341786Y-15458929D01*
X12356071Y-15444643D01*
X12356071Y-15473214D01*
X12356071Y-15287500D02*
X12370357Y-15301786D01*
X12356071Y-15316071D01*
X12341786Y-15301786D01*
X12356071Y-15287500D01*
X12356071Y-15316071D01*
X9712500Y-15817500D02*
X10012500Y-16117500D01*
X10012500Y-15817500D02*
X9712500Y-16117500D01*
X10270357Y-15803214D02*
X10456071Y-15803214D01*
X10356071Y-15917500D01*
X10398928Y-15917500D01*
X10427500Y-15931786D01*
X10441786Y-15946071D01*
X10456071Y-15974643D01*
X10456071Y-16046071D01*
X10441786Y-16074643D01*
X10427500Y-16088929D01*
X10398928Y-16103214D01*
X10313214Y-16103214D01*
X10284643Y-16088929D01*
X10270357Y-16074643D01*
X10584643Y-16074643D02*
X10598928Y-16088929D01*
X10584643Y-16103214D01*
X10570357Y-16088929D01*
X10584643Y-16074643D01*
X10584643Y-16103214D01*
X10784643Y-15803214D02*
X10813214Y-15803214D01*
X10841786Y-15817500D01*
X10856071Y-15831786D01*
X10870357Y-15860357D01*
X10884643Y-15917500D01*
X10884643Y-15988929D01*
X10870357Y-16046071D01*
X10856071Y-16074643D01*
X10841786Y-16088929D01*
X10813214Y-16103214D01*
X10784643Y-16103214D01*
X10756071Y-16088929D01*
X10741786Y-16074643D01*
X10727500Y-16046071D01*
X10713214Y-15988929D01*
X10713214Y-15917500D01*
X10727500Y-15860357D01*
X10741786Y-15831786D01*
X10756071Y-15817500D01*
X10784643Y-15803214D01*
X11070357Y-15803214D02*
X11098928Y-15803214D01*
X11127500Y-15817500D01*
X11141786Y-15831786D01*
X11156071Y-15860357D01*
X11170357Y-15917500D01*
X11170357Y-15988929D01*
X11156071Y-16046071D01*
X11141786Y-16074643D01*
X11127500Y-16088929D01*
X11098928Y-16103214D01*
X11070357Y-16103214D01*
X11041786Y-16088929D01*
X11027500Y-16074643D01*
X11013214Y-16046071D01*
X10998928Y-15988929D01*
X10998928Y-15917500D01*
X11013214Y-15860357D01*
X11027500Y-15831786D01*
X11041786Y-15817500D01*
X11070357Y-15803214D01*
X11298928Y-16103214D02*
X11298928Y-15903214D01*
X11298928Y-15931786D02*
X11313214Y-15917500D01*
X11341786Y-15903214D01*
X11384643Y-15903214D01*
X11413214Y-15917500D01*
X11427500Y-15946071D01*
X11427500Y-16103214D01*
X11427500Y-15946071D02*
X11441786Y-15917500D01*
X11470357Y-15903214D01*
X11513214Y-15903214D01*
X11541786Y-15917500D01*
X11556071Y-15946071D01*
X11556071Y-16103214D01*
X11698928Y-16103214D02*
X11698928Y-15903214D01*
X11698928Y-15931786D02*
X11713214Y-15917500D01*
X11741786Y-15903214D01*
X11784643Y-15903214D01*
X11813214Y-15917500D01*
X11827500Y-15946071D01*
X11827500Y-16103214D01*
X11827500Y-15946071D02*
X11841786Y-15917500D01*
X11870357Y-15903214D01*
X11913214Y-15903214D01*
X11941786Y-15917500D01*
X11956071Y-15946071D01*
X11956071Y-16103214D01*
X12541786Y-15788929D02*
X12284643Y-16174643D01*
X12927500Y-15803214D02*
X12956071Y-15803214D01*
X12984643Y-15817500D01*
X12998928Y-15831786D01*
X13013214Y-15860357D01*
X13027500Y-15917500D01*
X13027500Y-15988929D01*
X13013214Y-16046071D01*
X12998928Y-16074643D01*
X12984643Y-16088929D01*
X12956071Y-16103214D01*
X12927500Y-16103214D01*
X12898928Y-16088929D01*
X12884643Y-16074643D01*
X12870357Y-16046071D01*
X12856071Y-15988929D01*
X12856071Y-15917500D01*
X12870357Y-15860357D01*
X12884643Y-15831786D01*
X12898928Y-15817500D01*
X12927500Y-15803214D01*
X13156071Y-16074643D02*
X13170357Y-16088929D01*
X13156071Y-16103214D01*
X13141786Y-16088929D01*
X13156071Y-16074643D01*
X13156071Y-16103214D01*
X13456071Y-16103214D02*
X13284643Y-16103214D01*
X13370357Y-16103214D02*
X13370357Y-15803214D01*
X13341786Y-15846071D01*
X13313214Y-15874643D01*
X13284643Y-15888929D01*
X13741786Y-16103214D02*
X13570357Y-16103214D01*
X13656071Y-16103214D02*
X13656071Y-15803214D01*
X13627500Y-15846071D01*
X13598928Y-15874643D01*
X13570357Y-15888929D01*
X13913214Y-15931786D02*
X13884643Y-15917500D01*
X13870357Y-15903214D01*
X13856071Y-15874643D01*
X13856071Y-15860357D01*
X13870357Y-15831786D01*
X13884643Y-15817500D01*
X13913214Y-15803214D01*
X13970357Y-15803214D01*
X13998928Y-15817500D01*
X14013214Y-15831786D01*
X14027500Y-15860357D01*
X14027500Y-15874643D01*
X14013214Y-15903214D01*
X13998928Y-15917500D01*
X13970357Y-15931786D01*
X13913214Y-15931786D01*
X13884643Y-15946071D01*
X13870357Y-15960357D01*
X13856071Y-15988929D01*
X13856071Y-16046071D01*
X13870357Y-16074643D01*
X13884643Y-16088929D01*
X13913214Y-16103214D01*
X13970357Y-16103214D01*
X13998928Y-16088929D01*
X14013214Y-16074643D01*
X14027500Y-16046071D01*
X14027500Y-15988929D01*
X14013214Y-15960357D01*
X13998928Y-15946071D01*
X13970357Y-15931786D01*
X14141786Y-15803214D02*
X14141786Y-15860357D01*
X14256071Y-15803214D02*
X14256071Y-15860357D01*
X14698928Y-16217500D02*
X14684643Y-16203214D01*
X14656071Y-16160357D01*
X14641786Y-16131786D01*
X14627500Y-16088929D01*
X14613214Y-16017500D01*
X14613214Y-15960357D01*
X14627500Y-15888929D01*
X14641786Y-15846071D01*
X14656071Y-15817500D01*
X14684643Y-15774643D01*
X14698928Y-15760357D01*
X14956071Y-15803214D02*
X14813214Y-15803214D01*
X14798928Y-15946071D01*
X14813214Y-15931786D01*
X14841786Y-15917500D01*
X14913214Y-15917500D01*
X14941786Y-15931786D01*
X14956071Y-15946071D01*
X14970357Y-15974643D01*
X14970357Y-16046071D01*
X14956071Y-16074643D01*
X14941786Y-16088929D01*
X14913214Y-16103214D01*
X14841786Y-16103214D01*
X14813214Y-16088929D01*
X14798928Y-16074643D01*
X15327500Y-16103214D02*
X15327500Y-15803214D01*
X15456071Y-16103214D02*
X15456071Y-15946071D01*
X15441786Y-15917500D01*
X15413214Y-15903214D01*
X15370357Y-15903214D01*
X15341786Y-15917500D01*
X15327500Y-15931786D01*
X15641786Y-16103214D02*
X15613214Y-16088929D01*
X15598928Y-16074643D01*
X15584643Y-16046071D01*
X15584643Y-15960357D01*
X15598928Y-15931786D01*
X15613214Y-15917500D01*
X15641786Y-15903214D01*
X15684643Y-15903214D01*
X15713214Y-15917500D01*
X15727500Y-15931786D01*
X15741786Y-15960357D01*
X15741786Y-16046071D01*
X15727500Y-16074643D01*
X15713214Y-16088929D01*
X15684643Y-16103214D01*
X15641786Y-16103214D01*
X15913214Y-16103214D02*
X15884643Y-16088929D01*
X15870357Y-16060357D01*
X15870357Y-15803214D01*
X16141786Y-16088929D02*
X16113214Y-16103214D01*
X16056071Y-16103214D01*
X16027500Y-16088929D01*
X16013214Y-16060357D01*
X16013214Y-15946071D01*
X16027500Y-15917500D01*
X16056071Y-15903214D01*
X16113214Y-15903214D01*
X16141786Y-15917500D01*
X16156071Y-15946071D01*
X16156071Y-15974643D01*
X16013214Y-16003214D01*
X16270357Y-16088929D02*
X16298928Y-16103214D01*
X16356071Y-16103214D01*
X16384643Y-16088929D01*
X16398928Y-16060357D01*
X16398928Y-16046071D01*
X16384643Y-16017500D01*
X16356071Y-16003214D01*
X16313214Y-16003214D01*
X16284643Y-15988929D01*
X16270357Y-15960357D01*
X16270357Y-15946071D01*
X16284643Y-15917500D01*
X16313214Y-15903214D01*
X16356071Y-15903214D01*
X16384643Y-15917500D01*
X16498928Y-16217500D02*
X16513214Y-16203214D01*
X16541786Y-16160357D01*
X16556071Y-16131786D01*
X16570357Y-16088929D01*
X16584643Y-16017500D01*
X16584643Y-15960357D01*
X16570357Y-15888929D01*
X16556071Y-15846071D01*
X16541786Y-15817500D01*
X16513214Y-15774643D01*
X16498928Y-15760357D01*
X17041786Y-16217500D02*
X17027500Y-16203214D01*
X16998928Y-16160357D01*
X16984643Y-16131786D01*
X16970357Y-16088929D01*
X16956071Y-16017500D01*
X16956071Y-15960357D01*
X16970357Y-15888929D01*
X16984643Y-15846071D01*
X16998928Y-15817500D01*
X17027500Y-15774643D01*
X17041786Y-15760357D01*
X17156071Y-15903214D02*
X17156071Y-16103214D01*
X17156071Y-15931786D02*
X17170357Y-15917500D01*
X17198928Y-15903214D01*
X17241786Y-15903214D01*
X17270357Y-15917500D01*
X17284643Y-15946071D01*
X17284643Y-16103214D01*
X17470357Y-16103214D02*
X17441786Y-16088929D01*
X17427500Y-16074643D01*
X17413214Y-16046071D01*
X17413214Y-15960357D01*
X17427500Y-15931786D01*
X17441786Y-15917500D01*
X17470357Y-15903214D01*
X17513214Y-15903214D01*
X17541786Y-15917500D01*
X17556071Y-15931786D01*
X17570357Y-15960357D01*
X17570357Y-16046071D01*
X17556071Y-16074643D01*
X17541786Y-16088929D01*
X17513214Y-16103214D01*
X17470357Y-16103214D01*
X17656071Y-15903214D02*
X17770357Y-15903214D01*
X17698928Y-15803214D02*
X17698928Y-16060357D01*
X17713214Y-16088929D01*
X17741786Y-16103214D01*
X17770357Y-16103214D01*
X18098928Y-15903214D02*
X18098928Y-16203214D01*
X18098928Y-15917500D02*
X18127500Y-15903214D01*
X18184643Y-15903214D01*
X18213214Y-15917500D01*
X18227500Y-15931786D01*
X18241786Y-15960357D01*
X18241786Y-16046071D01*
X18227500Y-16074643D01*
X18213214Y-16088929D01*
X18184643Y-16103214D01*
X18127500Y-16103214D01*
X18098928Y-16088929D01*
X18413214Y-16103214D02*
X18384643Y-16088929D01*
X18370357Y-16060357D01*
X18370357Y-15803214D01*
X18656071Y-16103214D02*
X18656071Y-15946071D01*
X18641786Y-15917500D01*
X18613214Y-15903214D01*
X18556071Y-15903214D01*
X18527500Y-15917500D01*
X18656071Y-16088929D02*
X18627500Y-16103214D01*
X18556071Y-16103214D01*
X18527500Y-16088929D01*
X18513214Y-16060357D01*
X18513214Y-16031786D01*
X18527500Y-16003214D01*
X18556071Y-15988929D01*
X18627500Y-15988929D01*
X18656071Y-15974643D01*
X18756071Y-15903214D02*
X18870357Y-15903214D01*
X18798928Y-15803214D02*
X18798928Y-16060357D01*
X18813214Y-16088929D01*
X18841786Y-16103214D01*
X18870357Y-16103214D01*
X19084643Y-16088929D02*
X19056071Y-16103214D01*
X18998928Y-16103214D01*
X18970357Y-16088929D01*
X18956071Y-16060357D01*
X18956071Y-15946071D01*
X18970357Y-15917500D01*
X18998928Y-15903214D01*
X19056071Y-15903214D01*
X19084643Y-15917500D01*
X19098928Y-15946071D01*
X19098928Y-15974643D01*
X18956071Y-16003214D01*
X19356071Y-16103214D02*
X19356071Y-15803214D01*
X19356071Y-16088929D02*
X19327500Y-16103214D01*
X19270357Y-16103214D01*
X19241786Y-16088929D01*
X19227500Y-16074643D01*
X19213214Y-16046071D01*
X19213214Y-15960357D01*
X19227500Y-15931786D01*
X19241786Y-15917500D01*
X19270357Y-15903214D01*
X19327500Y-15903214D01*
X19356071Y-15917500D01*
X19470357Y-16217500D02*
X19484643Y-16203214D01*
X19513214Y-16160357D01*
X19527500Y-16131786D01*
X19541786Y-16088929D01*
X19556071Y-16017500D01*
X19556071Y-15960357D01*
X19541786Y-15888929D01*
X19527500Y-15846071D01*
X19513214Y-15817500D01*
X19484643Y-15774643D01*
X19470357Y-15760357D01*
M02*
