%FSLAX45Y45*%
G04 Gerber Fmt 4.5, Leading zero omitted, Abs format (unit mm)*
G04 Created by KiCad (PCBNEW no-vcs-found) date Fri Oct  6 14:05:32 2017*
%MOMM*%
%LPD*%
G01*
G04 APERTURE LIST*
%ADD10C,0.150000*%
%ADD11C,0.200000*%
%ADD12C,0.300000*%
G04 APERTURE END LIST*
D10*
X17080000Y-10020000D02*
G75*
G02X17480000Y-10420000I0J-400000D01*
G01*
X17480000Y-14580000D02*
G75*
G02X17080000Y-14980000I-400000J0D01*
G01*
X10400000Y-15000000D02*
G75*
G02X10000000Y-14600000I0J400000D01*
G01*
X10420000Y-10020000D02*
G75*
G03X10020000Y-10420000I0J-400000D01*
G01*
X17480000Y-14580000D02*
X17480000Y-10420000D01*
X10400000Y-15000000D02*
X17080000Y-14980000D01*
X10020000Y-10420000D02*
X10020000Y-14600000D01*
X10420000Y-10020000D02*
X17080000Y-10020000D01*
D11*
X10120000Y-11050000D02*
X10420000Y-11350000D01*
X10420000Y-11050000D02*
X10120000Y-11350000D01*
X10120000Y-12140000D02*
X10420000Y-12440000D01*
X10420000Y-12140000D02*
X10120000Y-12440000D01*
X17080000Y-11260000D02*
X17380000Y-11560000D01*
X17380000Y-11260000D02*
X17080000Y-11560000D01*
X17080000Y-12350000D02*
X17380000Y-12650000D01*
X17380000Y-12350000D02*
X17080000Y-12650000D01*
X17080000Y-13610000D02*
X17380000Y-13910000D01*
X17380000Y-13610000D02*
X17080000Y-13910000D01*
D12*
X10278928Y-15473214D02*
X10278928Y-15173214D01*
X10350357Y-15173214D01*
X10393214Y-15187500D01*
X10421786Y-15216071D01*
X10436071Y-15244643D01*
X10450357Y-15301786D01*
X10450357Y-15344643D01*
X10436071Y-15401786D01*
X10421786Y-15430357D01*
X10393214Y-15458929D01*
X10350357Y-15473214D01*
X10278928Y-15473214D01*
X10578928Y-15473214D02*
X10578928Y-15273214D01*
X10578928Y-15330357D02*
X10593214Y-15301786D01*
X10607500Y-15287500D01*
X10636071Y-15273214D01*
X10664643Y-15273214D01*
X10764643Y-15473214D02*
X10764643Y-15273214D01*
X10764643Y-15173214D02*
X10750357Y-15187500D01*
X10764643Y-15201786D01*
X10778928Y-15187500D01*
X10764643Y-15173214D01*
X10764643Y-15201786D01*
X10950357Y-15473214D02*
X10921786Y-15458929D01*
X10907500Y-15430357D01*
X10907500Y-15173214D01*
X11107500Y-15473214D02*
X11078928Y-15458929D01*
X11064643Y-15430357D01*
X11064643Y-15173214D01*
X11450357Y-15473214D02*
X11450357Y-15173214D01*
X11550357Y-15387500D01*
X11650357Y-15173214D01*
X11650357Y-15473214D01*
X11921786Y-15473214D02*
X11921786Y-15316071D01*
X11907500Y-15287500D01*
X11878928Y-15273214D01*
X11821786Y-15273214D01*
X11793214Y-15287500D01*
X11921786Y-15458929D02*
X11893214Y-15473214D01*
X11821786Y-15473214D01*
X11793214Y-15458929D01*
X11778928Y-15430357D01*
X11778928Y-15401786D01*
X11793214Y-15373214D01*
X11821786Y-15358929D01*
X11893214Y-15358929D01*
X11921786Y-15344643D01*
X12064643Y-15273214D02*
X12064643Y-15573214D01*
X12064643Y-15287500D02*
X12093214Y-15273214D01*
X12150357Y-15273214D01*
X12178928Y-15287500D01*
X12193214Y-15301786D01*
X12207500Y-15330357D01*
X12207500Y-15416071D01*
X12193214Y-15444643D01*
X12178928Y-15458929D01*
X12150357Y-15473214D01*
X12093214Y-15473214D01*
X12064643Y-15458929D01*
X12336071Y-15444643D02*
X12350357Y-15458929D01*
X12336071Y-15473214D01*
X12321786Y-15458929D01*
X12336071Y-15444643D01*
X12336071Y-15473214D01*
X12336071Y-15287500D02*
X12350357Y-15301786D01*
X12336071Y-15316071D01*
X12321786Y-15301786D01*
X12336071Y-15287500D01*
X12336071Y-15316071D01*
X9692500Y-15817500D02*
X9992500Y-16117500D01*
X9992500Y-15817500D02*
X9692500Y-16117500D01*
X10250357Y-15803214D02*
X10436071Y-15803214D01*
X10336071Y-15917500D01*
X10378928Y-15917500D01*
X10407500Y-15931786D01*
X10421786Y-15946071D01*
X10436071Y-15974643D01*
X10436071Y-16046071D01*
X10421786Y-16074643D01*
X10407500Y-16088929D01*
X10378928Y-16103214D01*
X10293214Y-16103214D01*
X10264643Y-16088929D01*
X10250357Y-16074643D01*
X10564643Y-16074643D02*
X10578928Y-16088929D01*
X10564643Y-16103214D01*
X10550357Y-16088929D01*
X10564643Y-16074643D01*
X10564643Y-16103214D01*
X10764643Y-15803214D02*
X10793214Y-15803214D01*
X10821786Y-15817500D01*
X10836071Y-15831786D01*
X10850357Y-15860357D01*
X10864643Y-15917500D01*
X10864643Y-15988929D01*
X10850357Y-16046071D01*
X10836071Y-16074643D01*
X10821786Y-16088929D01*
X10793214Y-16103214D01*
X10764643Y-16103214D01*
X10736071Y-16088929D01*
X10721786Y-16074643D01*
X10707500Y-16046071D01*
X10693214Y-15988929D01*
X10693214Y-15917500D01*
X10707500Y-15860357D01*
X10721786Y-15831786D01*
X10736071Y-15817500D01*
X10764643Y-15803214D01*
X11050357Y-15803214D02*
X11078928Y-15803214D01*
X11107500Y-15817500D01*
X11121786Y-15831786D01*
X11136071Y-15860357D01*
X11150357Y-15917500D01*
X11150357Y-15988929D01*
X11136071Y-16046071D01*
X11121786Y-16074643D01*
X11107500Y-16088929D01*
X11078928Y-16103214D01*
X11050357Y-16103214D01*
X11021786Y-16088929D01*
X11007500Y-16074643D01*
X10993214Y-16046071D01*
X10978928Y-15988929D01*
X10978928Y-15917500D01*
X10993214Y-15860357D01*
X11007500Y-15831786D01*
X11021786Y-15817500D01*
X11050357Y-15803214D01*
X11278928Y-16103214D02*
X11278928Y-15903214D01*
X11278928Y-15931786D02*
X11293214Y-15917500D01*
X11321786Y-15903214D01*
X11364643Y-15903214D01*
X11393214Y-15917500D01*
X11407500Y-15946071D01*
X11407500Y-16103214D01*
X11407500Y-15946071D02*
X11421786Y-15917500D01*
X11450357Y-15903214D01*
X11493214Y-15903214D01*
X11521786Y-15917500D01*
X11536071Y-15946071D01*
X11536071Y-16103214D01*
X11678928Y-16103214D02*
X11678928Y-15903214D01*
X11678928Y-15931786D02*
X11693214Y-15917500D01*
X11721786Y-15903214D01*
X11764643Y-15903214D01*
X11793214Y-15917500D01*
X11807500Y-15946071D01*
X11807500Y-16103214D01*
X11807500Y-15946071D02*
X11821786Y-15917500D01*
X11850357Y-15903214D01*
X11893214Y-15903214D01*
X11921786Y-15917500D01*
X11936071Y-15946071D01*
X11936071Y-16103214D01*
X12521786Y-15788929D02*
X12264643Y-16174643D01*
X12907500Y-15803214D02*
X12936071Y-15803214D01*
X12964643Y-15817500D01*
X12978928Y-15831786D01*
X12993214Y-15860357D01*
X13007500Y-15917500D01*
X13007500Y-15988929D01*
X12993214Y-16046071D01*
X12978928Y-16074643D01*
X12964643Y-16088929D01*
X12936071Y-16103214D01*
X12907500Y-16103214D01*
X12878928Y-16088929D01*
X12864643Y-16074643D01*
X12850357Y-16046071D01*
X12836071Y-15988929D01*
X12836071Y-15917500D01*
X12850357Y-15860357D01*
X12864643Y-15831786D01*
X12878928Y-15817500D01*
X12907500Y-15803214D01*
X13136071Y-16074643D02*
X13150357Y-16088929D01*
X13136071Y-16103214D01*
X13121786Y-16088929D01*
X13136071Y-16074643D01*
X13136071Y-16103214D01*
X13436071Y-16103214D02*
X13264643Y-16103214D01*
X13350357Y-16103214D02*
X13350357Y-15803214D01*
X13321786Y-15846071D01*
X13293214Y-15874643D01*
X13264643Y-15888929D01*
X13721786Y-16103214D02*
X13550357Y-16103214D01*
X13636071Y-16103214D02*
X13636071Y-15803214D01*
X13607500Y-15846071D01*
X13578928Y-15874643D01*
X13550357Y-15888929D01*
X13893214Y-15931786D02*
X13864643Y-15917500D01*
X13850357Y-15903214D01*
X13836071Y-15874643D01*
X13836071Y-15860357D01*
X13850357Y-15831786D01*
X13864643Y-15817500D01*
X13893214Y-15803214D01*
X13950357Y-15803214D01*
X13978928Y-15817500D01*
X13993214Y-15831786D01*
X14007500Y-15860357D01*
X14007500Y-15874643D01*
X13993214Y-15903214D01*
X13978928Y-15917500D01*
X13950357Y-15931786D01*
X13893214Y-15931786D01*
X13864643Y-15946071D01*
X13850357Y-15960357D01*
X13836071Y-15988929D01*
X13836071Y-16046071D01*
X13850357Y-16074643D01*
X13864643Y-16088929D01*
X13893214Y-16103214D01*
X13950357Y-16103214D01*
X13978928Y-16088929D01*
X13993214Y-16074643D01*
X14007500Y-16046071D01*
X14007500Y-15988929D01*
X13993214Y-15960357D01*
X13978928Y-15946071D01*
X13950357Y-15931786D01*
X14121786Y-15803214D02*
X14121786Y-15860357D01*
X14236071Y-15803214D02*
X14236071Y-15860357D01*
X14678928Y-16217500D02*
X14664643Y-16203214D01*
X14636071Y-16160357D01*
X14621786Y-16131786D01*
X14607500Y-16088929D01*
X14593214Y-16017500D01*
X14593214Y-15960357D01*
X14607500Y-15888929D01*
X14621786Y-15846071D01*
X14636071Y-15817500D01*
X14664643Y-15774643D01*
X14678928Y-15760357D01*
X14936071Y-15803214D02*
X14793214Y-15803214D01*
X14778928Y-15946071D01*
X14793214Y-15931786D01*
X14821786Y-15917500D01*
X14893214Y-15917500D01*
X14921786Y-15931786D01*
X14936071Y-15946071D01*
X14950357Y-15974643D01*
X14950357Y-16046071D01*
X14936071Y-16074643D01*
X14921786Y-16088929D01*
X14893214Y-16103214D01*
X14821786Y-16103214D01*
X14793214Y-16088929D01*
X14778928Y-16074643D01*
X15307500Y-16103214D02*
X15307500Y-15803214D01*
X15436071Y-16103214D02*
X15436071Y-15946071D01*
X15421786Y-15917500D01*
X15393214Y-15903214D01*
X15350357Y-15903214D01*
X15321786Y-15917500D01*
X15307500Y-15931786D01*
X15621786Y-16103214D02*
X15593214Y-16088929D01*
X15578928Y-16074643D01*
X15564643Y-16046071D01*
X15564643Y-15960357D01*
X15578928Y-15931786D01*
X15593214Y-15917500D01*
X15621786Y-15903214D01*
X15664643Y-15903214D01*
X15693214Y-15917500D01*
X15707500Y-15931786D01*
X15721786Y-15960357D01*
X15721786Y-16046071D01*
X15707500Y-16074643D01*
X15693214Y-16088929D01*
X15664643Y-16103214D01*
X15621786Y-16103214D01*
X15893214Y-16103214D02*
X15864643Y-16088929D01*
X15850357Y-16060357D01*
X15850357Y-15803214D01*
X16121786Y-16088929D02*
X16093214Y-16103214D01*
X16036071Y-16103214D01*
X16007500Y-16088929D01*
X15993214Y-16060357D01*
X15993214Y-15946071D01*
X16007500Y-15917500D01*
X16036071Y-15903214D01*
X16093214Y-15903214D01*
X16121786Y-15917500D01*
X16136071Y-15946071D01*
X16136071Y-15974643D01*
X15993214Y-16003214D01*
X16250357Y-16088929D02*
X16278928Y-16103214D01*
X16336071Y-16103214D01*
X16364643Y-16088929D01*
X16378928Y-16060357D01*
X16378928Y-16046071D01*
X16364643Y-16017500D01*
X16336071Y-16003214D01*
X16293214Y-16003214D01*
X16264643Y-15988929D01*
X16250357Y-15960357D01*
X16250357Y-15946071D01*
X16264643Y-15917500D01*
X16293214Y-15903214D01*
X16336071Y-15903214D01*
X16364643Y-15917500D01*
X16478928Y-16217500D02*
X16493214Y-16203214D01*
X16521786Y-16160357D01*
X16536071Y-16131786D01*
X16550357Y-16088929D01*
X16564643Y-16017500D01*
X16564643Y-15960357D01*
X16550357Y-15888929D01*
X16536071Y-15846071D01*
X16521786Y-15817500D01*
X16493214Y-15774643D01*
X16478928Y-15760357D01*
X17021786Y-16217500D02*
X17007500Y-16203214D01*
X16978928Y-16160357D01*
X16964643Y-16131786D01*
X16950357Y-16088929D01*
X16936071Y-16017500D01*
X16936071Y-15960357D01*
X16950357Y-15888929D01*
X16964643Y-15846071D01*
X16978928Y-15817500D01*
X17007500Y-15774643D01*
X17021786Y-15760357D01*
X17136071Y-15903214D02*
X17136071Y-16103214D01*
X17136071Y-15931786D02*
X17150357Y-15917500D01*
X17178928Y-15903214D01*
X17221786Y-15903214D01*
X17250357Y-15917500D01*
X17264643Y-15946071D01*
X17264643Y-16103214D01*
X17450357Y-16103214D02*
X17421786Y-16088929D01*
X17407500Y-16074643D01*
X17393214Y-16046071D01*
X17393214Y-15960357D01*
X17407500Y-15931786D01*
X17421786Y-15917500D01*
X17450357Y-15903214D01*
X17493214Y-15903214D01*
X17521786Y-15917500D01*
X17536071Y-15931786D01*
X17550357Y-15960357D01*
X17550357Y-16046071D01*
X17536071Y-16074643D01*
X17521786Y-16088929D01*
X17493214Y-16103214D01*
X17450357Y-16103214D01*
X17636071Y-15903214D02*
X17750357Y-15903214D01*
X17678928Y-15803214D02*
X17678928Y-16060357D01*
X17693214Y-16088929D01*
X17721786Y-16103214D01*
X17750357Y-16103214D01*
X18078928Y-15903214D02*
X18078928Y-16203214D01*
X18078928Y-15917500D02*
X18107500Y-15903214D01*
X18164643Y-15903214D01*
X18193214Y-15917500D01*
X18207500Y-15931786D01*
X18221786Y-15960357D01*
X18221786Y-16046071D01*
X18207500Y-16074643D01*
X18193214Y-16088929D01*
X18164643Y-16103214D01*
X18107500Y-16103214D01*
X18078928Y-16088929D01*
X18393214Y-16103214D02*
X18364643Y-16088929D01*
X18350357Y-16060357D01*
X18350357Y-15803214D01*
X18636071Y-16103214D02*
X18636071Y-15946071D01*
X18621786Y-15917500D01*
X18593214Y-15903214D01*
X18536071Y-15903214D01*
X18507500Y-15917500D01*
X18636071Y-16088929D02*
X18607500Y-16103214D01*
X18536071Y-16103214D01*
X18507500Y-16088929D01*
X18493214Y-16060357D01*
X18493214Y-16031786D01*
X18507500Y-16003214D01*
X18536071Y-15988929D01*
X18607500Y-15988929D01*
X18636071Y-15974643D01*
X18736071Y-15903214D02*
X18850357Y-15903214D01*
X18778928Y-15803214D02*
X18778928Y-16060357D01*
X18793214Y-16088929D01*
X18821786Y-16103214D01*
X18850357Y-16103214D01*
X19064643Y-16088929D02*
X19036071Y-16103214D01*
X18978928Y-16103214D01*
X18950357Y-16088929D01*
X18936071Y-16060357D01*
X18936071Y-15946071D01*
X18950357Y-15917500D01*
X18978928Y-15903214D01*
X19036071Y-15903214D01*
X19064643Y-15917500D01*
X19078928Y-15946071D01*
X19078928Y-15974643D01*
X18936071Y-16003214D01*
X19336071Y-16103214D02*
X19336071Y-15803214D01*
X19336071Y-16088929D02*
X19307500Y-16103214D01*
X19250357Y-16103214D01*
X19221786Y-16088929D01*
X19207500Y-16074643D01*
X19193214Y-16046071D01*
X19193214Y-15960357D01*
X19207500Y-15931786D01*
X19221786Y-15917500D01*
X19250357Y-15903214D01*
X19307500Y-15903214D01*
X19336071Y-15917500D01*
X19450357Y-16217500D02*
X19464643Y-16203214D01*
X19493214Y-16160357D01*
X19507500Y-16131786D01*
X19521786Y-16088929D01*
X19536071Y-16017500D01*
X19536071Y-15960357D01*
X19521786Y-15888929D01*
X19507500Y-15846071D01*
X19493214Y-15817500D01*
X19464643Y-15774643D01*
X19450357Y-15760357D01*
M02*
