%TF.GenerationSoftware,KiCad,Pcbnew,no-vcs-found*%
%TF.CreationDate,2017-10-09T11:26:26+10:30*%
%TF.ProjectId,clearpath-sc-single-channel,636C656172706174682D73632D73696E,1.0*%
%TF.SameCoordinates,Original*%
%TF.FileFunction,Copper,L1,Top,Signal*%
%TF.FilePolarity,Positive*%
%FSLAX46Y46*%
G04 Gerber Fmt 4.6, Leading zero omitted, Abs format (unit mm)*
G04 Created by KiCad (PCBNEW no-vcs-found) date Mon Oct  9 11:26:26 2017*
%MOMM*%
%LPD*%
G01*
G04 APERTURE LIST*
%TA.AperFunction,SMDPad,CuDef*%
%ADD10R,1.180000X2.810000*%
%TD*%
%TA.AperFunction,SMDPad,CuDef*%
%ADD11R,2.000000X1.200000*%
%TD*%
%TA.AperFunction,ComponentPad*%
%ADD12R,3.000000X3.000000*%
%TD*%
%TA.AperFunction,ComponentPad*%
%ADD13C,3.000000*%
%TD*%
%TA.AperFunction,SMDPad,CuDef*%
%ADD14R,0.920000X0.970000*%
%TD*%
%TA.AperFunction,SMDPad,CuDef*%
%ADD15R,1.820000X1.160000*%
%TD*%
%TA.AperFunction,SMDPad,CuDef*%
%ADD16R,1.470000X1.160000*%
%TD*%
%TA.AperFunction,SMDPad,CuDef*%
%ADD17R,3.270000X1.580000*%
%TD*%
%TA.AperFunction,SMDPad,CuDef*%
%ADD18R,0.970000X0.920000*%
%TD*%
%TA.AperFunction,SMDPad,CuDef*%
%ADD19R,1.660000X1.620000*%
%TD*%
%TA.AperFunction,SMDPad,CuDef*%
%ADD20R,1.180000X0.610000*%
%TD*%
%TA.AperFunction,SMDPad,CuDef*%
%ADD21R,0.910000X0.930000*%
%TD*%
%TA.AperFunction,SMDPad,CuDef*%
%ADD22R,0.610000X1.180000*%
%TD*%
%TA.AperFunction,SMDPad,CuDef*%
%ADD23R,0.930000X0.910000*%
%TD*%
%TA.AperFunction,SMDPad,CuDef*%
%ADD24R,1.900000X1.175000*%
%TD*%
%TA.AperFunction,SMDPad,CuDef*%
%ADD25R,1.900000X2.375000*%
%TD*%
%TA.AperFunction,SMDPad,CuDef*%
%ADD26R,2.100000X1.475000*%
%TD*%
%TA.AperFunction,SMDPad,CuDef*%
%ADD27R,1.380000X0.450000*%
%TD*%
%TA.AperFunction,ComponentPad*%
%ADD28C,6.500000*%
%TD*%
%TA.AperFunction,SMDPad,CuDef*%
%ADD29R,0.980000X0.850000*%
%TD*%
%TA.AperFunction,SMDPad,CuDef*%
%ADD30R,0.850000X0.980000*%
%TD*%
%TA.AperFunction,SMDPad,CuDef*%
%ADD31R,0.700000X1.200000*%
%TD*%
%TA.AperFunction,SMDPad,CuDef*%
%ADD32R,0.700000X1.000000*%
%TD*%
%TA.AperFunction,SMDPad,CuDef*%
%ADD33R,2.000000X2.925000*%
%TD*%
%TA.AperFunction,SMDPad,CuDef*%
%ADD34R,0.410000X1.570000*%
%TD*%
%TA.AperFunction,SMDPad,CuDef*%
%ADD35R,1.350000X0.560000*%
%TD*%
%TA.AperFunction,ComponentPad*%
%ADD36C,1.500000*%
%TD*%
%TA.AperFunction,ComponentPad*%
%ADD37R,1.727200X2.032000*%
%TD*%
%TA.AperFunction,ComponentPad*%
%ADD38O,1.727200X2.032000*%
%TD*%
%TA.AperFunction,ViaPad*%
%ADD39C,0.800000*%
%TD*%
%TA.AperFunction,Conductor*%
%ADD40C,0.300000*%
%TD*%
%TA.AperFunction,Conductor*%
%ADD41C,0.250000*%
%TD*%
%TA.AperFunction,Conductor*%
%ADD42C,0.400000*%
%TD*%
%TA.AperFunction,Conductor*%
%ADD43C,0.800000*%
%TD*%
%TA.AperFunction,Conductor*%
%ADD44C,0.600000*%
%TD*%
%TA.AperFunction,Conductor*%
%ADD45C,0.500000*%
%TD*%
%TA.AperFunction,Conductor*%
%ADD46C,0.350000*%
%TD*%
G04 APERTURE END LIST*
D10*
%TO.P,F1,2*%
%TO.N,Net-(F1-Pad2)*%
X109015000Y-131500000D03*
%TO.P,F1,1*%
%TO.N,USB_VDD*%
X111985000Y-131500000D03*
%TD*%
D11*
%TO.P,FB1,3*%
%TO.N,MOTOR_RX_A*%
X153500000Y-126270000D03*
%TO.P,FB1,4*%
%TO.N,MOTOR_RX_B*%
X153500000Y-123730000D03*
%TO.P,FB1,1*%
%TO.N,GND*%
X146000000Y-123730000D03*
%TO.P,FB1,2*%
%TO.N,Net-(C9-Pad1)*%
X146000000Y-126270000D03*
%TD*%
D12*
%TO.P,P4,1*%
%TO.N,MOTOR_RX_B*%
X165000000Y-125000000D03*
D13*
%TO.P,P4,2*%
%TO.N,INPUT_B+*%
X165000000Y-129200000D03*
%TO.P,P4,3*%
%TO.N,INPUT_A+*%
X165000000Y-133400000D03*
%TO.P,P4,4*%
%TO.N,MOTOR_TX_A*%
X165000000Y-137600000D03*
%TO.P,P4,5*%
%TO.N,MOTOR_RX_A*%
X159500000Y-125000000D03*
%TO.P,P4,6*%
%TO.N,INPUT_B-*%
X159500000Y-129200000D03*
%TO.P,P4,7*%
%TO.N,INPUT_A-*%
X159500000Y-133400000D03*
%TO.P,P4,8*%
%TO.N,MOTOR_TX_B*%
X159500000Y-137600000D03*
%TD*%
D12*
%TO.P,P2,1*%
%TO.N,INPUT_A+*%
X110000000Y-125000000D03*
D13*
%TO.P,P2,2*%
%TO.N,+POWER*%
X110000000Y-120800000D03*
%TO.P,P2,3*%
%TO.N,INPUT_A-*%
X115500000Y-125000000D03*
%TO.P,P2,4*%
%TO.N,GND*%
X115500000Y-120800000D03*
%TD*%
D12*
%TO.P,P3,1*%
%TO.N,INPUT_B+*%
X165000000Y-112000000D03*
D13*
%TO.P,P3,2*%
%TO.N,+POWER*%
X165000000Y-116200000D03*
%TO.P,P3,3*%
%TO.N,INPUT_B-*%
X159500000Y-112000000D03*
%TO.P,P3,4*%
%TO.N,GND*%
X159500000Y-116200000D03*
%TD*%
D12*
%TO.P,P1,1*%
%TO.N,Net-(D1-PadA)*%
X110000000Y-112000000D03*
D13*
%TO.P,P1,2*%
%TO.N,GND*%
X115500000Y-112000000D03*
%TD*%
D14*
%TO.P,C1,1*%
%TO.N,USB_VDD*%
X122025000Y-131500000D03*
%TO.P,C1,2*%
%TO.N,GND*%
X120475000Y-131500000D03*
%TD*%
%TO.P,C2,2*%
%TO.N,GND*%
X121775000Y-142350000D03*
%TO.P,C2,1*%
%TO.N,USB_3V3OUT*%
X120225000Y-142350000D03*
%TD*%
D15*
%TO.P,C3,2*%
%TO.N,GND*%
X138000000Y-108025000D03*
%TO.P,C3,1*%
%TO.N,+POWER*%
X138000000Y-110975000D03*
%TD*%
D16*
%TO.P,C4,2*%
%TO.N,GND*%
X136500000Y-115875000D03*
%TO.P,C4,1*%
%TO.N,+12V*%
X136500000Y-114125000D03*
%TD*%
D17*
%TO.P,C5,1*%
%TO.N,+POWER*%
X126980000Y-113500000D03*
%TO.P,C5,2*%
%TO.N,GND*%
X122020000Y-113500000D03*
%TD*%
D15*
%TO.P,C6,1*%
%TO.N,+POWER*%
X146500000Y-110975000D03*
%TO.P,C6,2*%
%TO.N,GND*%
X146500000Y-108025000D03*
%TD*%
D16*
%TO.P,C7,1*%
%TO.N,+5V*%
X145000000Y-114125000D03*
%TO.P,C7,2*%
%TO.N,GND*%
X145000000Y-115875000D03*
%TD*%
D14*
%TO.P,C8,2*%
%TO.N,GND*%
X109725000Y-134250000D03*
%TO.P,C8,1*%
%TO.N,USB_VDD*%
X111275000Y-134250000D03*
%TD*%
D18*
%TO.P,C9,2*%
%TO.N,GND*%
X141000000Y-124225000D03*
%TO.P,C9,1*%
%TO.N,Net-(C9-Pad1)*%
X141000000Y-125775000D03*
%TD*%
%TO.P,C10,1*%
%TO.N,+12V*%
X135000000Y-124225000D03*
%TO.P,C10,2*%
%TO.N,GND*%
X135000000Y-125775000D03*
%TD*%
%TO.P,C11,1*%
%TO.N,Net-(C11-Pad1)*%
X139000000Y-135725000D03*
%TO.P,C11,2*%
%TO.N,GND*%
X139000000Y-137275000D03*
%TD*%
D19*
%TO.P,D1,C*%
%TO.N,+POWER*%
X126530000Y-107500000D03*
%TO.P,D1,A*%
%TO.N,Net-(D1-PadA)*%
X122470000Y-107500000D03*
%TD*%
D20*
%TO.P,D2,1*%
%TO.N,+POWER*%
X120975000Y-119550000D03*
%TO.P,D2,2*%
%TO.N,N/C*%
X120975000Y-121450000D03*
%TO.P,D2,3*%
%TO.N,INPUT_A+*%
X123025000Y-120500000D03*
%TD*%
%TO.P,D3,3*%
%TO.N,INPUT_B+*%
X151975000Y-116500000D03*
%TO.P,D3,2*%
%TO.N,N/C*%
X154025000Y-115550000D03*
%TO.P,D3,1*%
%TO.N,+POWER*%
X154025000Y-117450000D03*
%TD*%
D21*
%TO.P,D4,C*%
%TO.N,Net-(D4-PadC)*%
X120740000Y-124000000D03*
%TO.P,D4,A*%
%TO.N,INPUT_A+*%
X122260000Y-124000000D03*
%TD*%
%TO.P,D5,C*%
%TO.N,Net-(D5-PadC)*%
X154020000Y-113000000D03*
%TO.P,D5,A*%
%TO.N,INPUT_B+*%
X152500000Y-113000000D03*
%TD*%
D22*
%TO.P,D6,3*%
%TO.N,Net-(C11-Pad1)*%
X134300000Y-135450000D03*
%TO.P,D6,2*%
%TO.N,N/C*%
X135250000Y-137500000D03*
%TO.P,D6,1*%
%TO.N,Net-(D6-Pad1)*%
X133350000Y-137500000D03*
%TD*%
D23*
%TO.P,D7,A*%
%TO.N,+5V*%
X129750000Y-137260000D03*
%TO.P,D7,C*%
%TO.N,Net-(D7-PadC)*%
X129750000Y-135740000D03*
%TD*%
D24*
%TO.P,J?1,6*%
%TO.N,N/C*%
X101420000Y-136590000D03*
X101420000Y-134910000D03*
D25*
X101420000Y-138660000D03*
X101420000Y-132840000D03*
D26*
X103720000Y-138212500D03*
X103720000Y-133287500D03*
D27*
%TO.P,J?1,5*%
%TO.N,GND*%
X104080000Y-137050000D03*
%TO.P,J?1,4*%
%TO.N,Net-(J?1-Pad4)*%
X104080000Y-136400000D03*
%TO.P,J?1,3*%
%TO.N,Net-(J?1-Pad3)*%
X104080000Y-135750000D03*
%TO.P,J?1,2*%
%TO.N,Net-(J?1-Pad2)*%
X104080000Y-135100000D03*
%TO.P,J?1,1*%
%TO.N,Net-(F1-Pad2)*%
X104080000Y-134450000D03*
%TD*%
D28*
%TO.P,MNT1,1*%
%TO.N,GND*%
X171000000Y-104000000D03*
%TD*%
%TO.P,MNT2,1*%
%TO.N,GND*%
X171000000Y-146000000D03*
%TD*%
%TO.P,MNT3,1*%
%TO.N,GND*%
X104000000Y-146000000D03*
%TD*%
%TO.P,MNT4,1*%
%TO.N,GND*%
X104000000Y-104000000D03*
%TD*%
D22*
%TO.P,Q1,1*%
%TO.N,Net-(Q1-Pad1)*%
X138950000Y-127975000D03*
%TO.P,Q1,2*%
%TO.N,Net-(Q1-Pad2)*%
X137050000Y-127975000D03*
%TO.P,Q1,3*%
%TO.N,Net-(Q1-Pad3)*%
X138000000Y-130025000D03*
%TD*%
%TO.P,Q2,1*%
%TO.N,+5V*%
X142950000Y-127975000D03*
%TO.P,Q2,2*%
%TO.N,Net-(C9-Pad1)*%
X141050000Y-127975000D03*
%TO.P,Q2,3*%
%TO.N,Net-(Q1-Pad1)*%
X142000000Y-130025000D03*
%TD*%
D29*
%TO.P,R1,1*%
%TO.N,Net-(R1-Pad1)*%
X132000000Y-114225000D03*
%TO.P,R1,2*%
%TO.N,GND*%
X132000000Y-115775000D03*
%TD*%
%TO.P,R2,1*%
%TO.N,+12V*%
X134000000Y-114225000D03*
%TO.P,R2,2*%
%TO.N,Net-(R1-Pad1)*%
X134000000Y-115775000D03*
%TD*%
%TO.P,R3,2*%
%TO.N,GND*%
X140500000Y-115775000D03*
%TO.P,R3,1*%
%TO.N,Net-(R3-Pad1)*%
X140500000Y-114225000D03*
%TD*%
%TO.P,R4,2*%
%TO.N,Net-(R3-Pad1)*%
X142500000Y-115775000D03*
%TO.P,R4,1*%
%TO.N,+5V*%
X142500000Y-114225000D03*
%TD*%
D30*
%TO.P,R5,2*%
%TO.N,Net-(R5-Pad2)*%
X114725000Y-136000000D03*
%TO.P,R5,1*%
%TO.N,USB_D-*%
X116275000Y-136000000D03*
%TD*%
%TO.P,R6,1*%
%TO.N,USB_D+*%
X116300000Y-138000000D03*
%TO.P,R6,2*%
%TO.N,Net-(R6-Pad2)*%
X114750000Y-138000000D03*
%TD*%
%TO.P,R7,2*%
%TO.N,INPUT_A-*%
X122275000Y-126000000D03*
%TO.P,R7,1*%
%TO.N,Net-(D4-PadC)*%
X120725000Y-126000000D03*
%TD*%
%TO.P,R8,1*%
%TO.N,Net-(D5-PadC)*%
X154050000Y-111000000D03*
%TO.P,R8,2*%
%TO.N,INPUT_B-*%
X152500000Y-111000000D03*
%TD*%
D29*
%TO.P,R9,1*%
%TO.N,Net-(Q1-Pad3)*%
X133000000Y-129775000D03*
%TO.P,R9,2*%
%TO.N,Net-(R9-Pad2)*%
X133000000Y-128225000D03*
%TD*%
%TO.P,R10,1*%
%TO.N,+12V*%
X137000000Y-124225000D03*
%TO.P,R10,2*%
%TO.N,Net-(Q1-Pad2)*%
X137000000Y-125775000D03*
%TD*%
%TO.P,R11,1*%
%TO.N,Net-(Q1-Pad3)*%
X135000000Y-129775000D03*
%TO.P,R11,2*%
%TO.N,GND*%
X135000000Y-128225000D03*
%TD*%
%TO.P,R12,1*%
%TO.N,+12V*%
X139000000Y-124225000D03*
%TO.P,R12,2*%
%TO.N,Net-(Q1-Pad1)*%
X139000000Y-125775000D03*
%TD*%
%TO.P,R13,1*%
%TO.N,Net-(C9-Pad1)*%
X143000000Y-125775000D03*
%TO.P,R13,2*%
%TO.N,GND*%
X143000000Y-124225000D03*
%TD*%
D30*
%TO.P,R14,1*%
%TO.N,MOTOR_TX_A*%
X153775000Y-139100000D03*
%TO.P,R14,2*%
%TO.N,Net-(R14-Pad2)*%
X152225000Y-139100000D03*
%TD*%
%TO.P,R15,2*%
%TO.N,GND*%
X152225000Y-137250000D03*
%TO.P,R15,1*%
%TO.N,MOTOR_TX_B*%
X153775000Y-137250000D03*
%TD*%
D29*
%TO.P,R16,2*%
%TO.N,Net-(D6-Pad1)*%
X137250000Y-137275000D03*
%TO.P,R16,1*%
%TO.N,Net-(C11-Pad1)*%
X137250000Y-135725000D03*
%TD*%
%TO.P,R17,2*%
%TO.N,Net-(R17-Pad2)*%
X131500000Y-137275000D03*
%TO.P,R17,1*%
%TO.N,Net-(D7-PadC)*%
X131500000Y-135725000D03*
%TD*%
D31*
%TO.P,U1,1*%
%TO.N,Net-(R1-Pad1)*%
X132500000Y-111375000D03*
%TO.P,U1,2*%
%TO.N,+12V*%
X134000000Y-111375000D03*
%TO.P,U1,3*%
%TO.N,+POWER*%
X135500000Y-111375000D03*
D32*
%TO.P,U1,2*%
%TO.N,+12V*%
X134000000Y-110389000D03*
D33*
X134000000Y-108537500D03*
%TD*%
D34*
%TO.P,U2,16*%
%TO.N,Net-(U2-Pad16)*%
X118975000Y-134130000D03*
%TO.P,U2,15*%
%TO.N,Net-(U2-Pad15)*%
X119625000Y-134130000D03*
%TO.P,U2,14*%
%TO.N,Net-(U2-Pad14)*%
X120275000Y-134130000D03*
%TO.P,U2,13*%
%TO.N,GND*%
X120925000Y-134130000D03*
%TO.P,U2,12*%
%TO.N,USB_VDD*%
X121575000Y-134130000D03*
%TO.P,U2,11*%
%TO.N,USB_3V3OUT*%
X122225000Y-134130000D03*
%TO.P,U2,10*%
X122875000Y-134130000D03*
%TO.P,U2,9*%
%TO.N,USB_D-*%
X123525000Y-134130000D03*
%TO.P,U2,8*%
%TO.N,USB_D+*%
X123525000Y-139870000D03*
%TO.P,U2,7*%
%TO.N,Net-(U2-Pad7)*%
X122875000Y-139870000D03*
%TO.P,U2,6*%
%TO.N,Net-(U2-Pad6)*%
X122225000Y-139870000D03*
%TO.P,U2,5*%
%TO.N,GND*%
X121575000Y-139870000D03*
%TO.P,U2,4*%
%TO.N,SERIAL_RX*%
X120925000Y-139870000D03*
%TO.P,U2,3*%
%TO.N,USB_3V3OUT*%
X120275000Y-139870000D03*
%TO.P,U2,2*%
%TO.N,Net-(U2-Pad2)*%
X119625000Y-139870000D03*
%TO.P,U2,1*%
%TO.N,SERIAL_TX*%
X118975000Y-139870000D03*
%TD*%
D35*
%TO.P,U3,1*%
%TO.N,Net-(J?1-Pad2)*%
X109325000Y-136050000D03*
%TO.P,U3,2*%
%TO.N,GND*%
X109325000Y-137000000D03*
%TO.P,U3,3*%
%TO.N,Net-(J?1-Pad3)*%
X109325000Y-137950000D03*
%TO.P,U3,4*%
%TO.N,Net-(R6-Pad2)*%
X111675000Y-137950000D03*
%TO.P,U3,5*%
%TO.N,USB_VDD*%
X111675000Y-137000000D03*
%TO.P,U3,6*%
%TO.N,Net-(R5-Pad2)*%
X111675000Y-136050000D03*
%TD*%
D33*
%TO.P,U4,2*%
%TO.N,+5V*%
X142500000Y-108537500D03*
D32*
X142500000Y-110389000D03*
D31*
%TO.P,U4,3*%
%TO.N,+POWER*%
X144000000Y-111375000D03*
%TO.P,U4,2*%
%TO.N,+5V*%
X142500000Y-111375000D03*
%TO.P,U4,1*%
%TO.N,Net-(R3-Pad1)*%
X141000000Y-111375000D03*
%TD*%
D34*
%TO.P,U5,14*%
%TO.N,+5V*%
X143300000Y-135130000D03*
%TO.P,U5,13*%
%TO.N,SERIAL_RX*%
X143950000Y-135130000D03*
%TO.P,U5,12*%
%TO.N,Net-(U5-Pad11)*%
X144600000Y-135130000D03*
%TO.P,U5,11*%
X145250000Y-135130000D03*
%TO.P,U5,10*%
%TO.N,Net-(R9-Pad2)*%
X145900000Y-135130000D03*
%TO.P,U5,9*%
%TO.N,Net-(D6-Pad1)*%
X146550000Y-135130000D03*
%TO.P,U5,8*%
%TO.N,SERIAL_TX*%
X147200000Y-135130000D03*
%TO.P,U5,7*%
%TO.N,GND*%
X147200000Y-140870000D03*
%TO.P,U5,6*%
%TO.N,Net-(R14-Pad2)*%
X146550000Y-140870000D03*
%TO.P,U5,5*%
%TO.N,SERIAL_TX*%
X145900000Y-140870000D03*
%TO.P,U5,4*%
%TO.N,Net-(R14-Pad2)*%
X145250000Y-140870000D03*
%TO.P,U5,3*%
%TO.N,SERIAL_TX*%
X144600000Y-140870000D03*
%TO.P,U5,2*%
%TO.N,Net-(R17-Pad2)*%
X143950000Y-140870000D03*
%TO.P,U5,1*%
%TO.N,Net-(C11-Pad1)*%
X143300000Y-140870000D03*
%TD*%
D36*
%TO.P,TEST1,1*%
%TO.N,+12V*%
X132000000Y-105750000D03*
%TD*%
%TO.P,TEST2,1*%
%TO.N,+5V*%
X140500000Y-105750000D03*
%TD*%
%TO.P,TEST3,1*%
%TO.N,GND*%
X150750000Y-105750000D03*
%TD*%
D18*
%TO.P,C12,1*%
%TO.N,+5V*%
X140750000Y-135725000D03*
%TO.P,C12,2*%
%TO.N,GND*%
X140750000Y-137275000D03*
%TD*%
D37*
%TO.P,P5,1*%
%TO.N,GND*%
X112000000Y-147000000D03*
D38*
%TO.P,P5,2*%
%TO.N,Net-(P5-Pad2)*%
X114540000Y-147000000D03*
%TO.P,P5,3*%
%TO.N,+POWER*%
X117080000Y-147000000D03*
%TO.P,P5,4*%
%TO.N,SERIAL_TX*%
X119620000Y-147000000D03*
%TO.P,P5,5*%
%TO.N,SERIAL_RX*%
X122160000Y-147000000D03*
%TO.P,P5,6*%
%TO.N,Net-(P5-Pad6)*%
X124700000Y-147000000D03*
%TO.P,P5,7*%
%TO.N,Net-(P5-Pad7)*%
X127240000Y-147000000D03*
%TO.P,P5,8*%
%TO.N,Net-(P5-Pad8)*%
X129780000Y-147000000D03*
%TD*%
D39*
%TO.N,GND*%
X123200000Y-142400000D03*
X148750000Y-142000000D03*
X139000000Y-138474991D03*
X119250000Y-131500000D03*
X106500000Y-139250000D03*
X144750000Y-108000000D03*
X136250000Y-108000000D03*
X143750000Y-117500000D03*
X140500000Y-117000000D03*
X135500000Y-117500000D03*
X132000000Y-117250000D03*
X110500000Y-139250000D03*
X108250000Y-134250000D03*
X150750000Y-137250000D03*
X133250000Y-125750000D03*
X141000000Y-122250000D03*
%TO.N,USB_3V3OUT*%
X120000000Y-138250000D03*
X122500000Y-135975000D03*
%TO.N,+POWER*%
X130000000Y-112500000D03*
X146500000Y-112500000D03*
X138000000Y-112500000D03*
%TO.N,+5V*%
X142000000Y-140000000D03*
X140750000Y-134250000D03*
X144750000Y-119999999D03*
X144750000Y-129500000D03*
%TO.N,Net-(C11-Pad1)*%
X142815686Y-139125012D03*
X139000000Y-134250000D03*
%TO.N,INPUT_A+*%
X123750000Y-128500000D03*
X123750000Y-125000000D03*
%TO.N,Net-(R9-Pad2)*%
X133000006Y-133000000D03*
X133000000Y-127000000D03*
%TO.N,SERIAL_RX*%
X144500000Y-137000000D03*
X122250000Y-138250000D03*
%TO.N,SERIAL_TX*%
X124500000Y-142000000D03*
X144500000Y-143000000D03*
%TD*%
D40*
%TO.N,USB_VDD*%
X111985000Y-131500000D02*
X116750000Y-131500000D01*
X116750000Y-131500000D02*
X118250000Y-130000000D01*
X118250000Y-130000000D02*
X121500000Y-130000000D01*
X121500000Y-130000000D02*
X122025000Y-130525000D01*
X122025000Y-130525000D02*
X122025000Y-131500000D01*
D41*
X111675000Y-137000000D02*
X110750000Y-137000000D01*
X110750000Y-137000000D02*
X110560001Y-136810001D01*
X110560001Y-136810001D02*
X110560001Y-134989999D01*
X110560001Y-134989999D02*
X111275000Y-134275000D01*
X111275000Y-134275000D02*
X111275000Y-134250000D01*
D40*
X111985000Y-131500000D02*
X111985000Y-133540000D01*
X111985000Y-133540000D02*
X111275000Y-134250000D01*
X121575000Y-134130000D02*
X121575000Y-132925000D01*
X121575000Y-132925000D02*
X122025000Y-132475000D01*
X122025000Y-132475000D02*
X122025000Y-131500000D01*
%TO.N,GND*%
X123150000Y-142350000D02*
X123200000Y-142400000D01*
X121775000Y-142350000D02*
X123150000Y-142350000D01*
D41*
X121575000Y-139870000D02*
X121575000Y-142150000D01*
X121575000Y-142150000D02*
X121775000Y-142350000D01*
X139000000Y-137275000D02*
X140750000Y-137275000D01*
D40*
X147200000Y-140870000D02*
X148370000Y-140870000D01*
X148370000Y-140870000D02*
X148750000Y-141250000D01*
X148750000Y-141250000D02*
X148750000Y-142000000D01*
D41*
X139000000Y-137275000D02*
X139000000Y-138474991D01*
D42*
X146000000Y-123730000D02*
X144520000Y-123730000D01*
X144520000Y-123730000D02*
X144025000Y-124225000D01*
X144025000Y-124225000D02*
X143000000Y-124225000D01*
D40*
X120475000Y-131500000D02*
X119250000Y-131500000D01*
X104080000Y-137050000D02*
X105550000Y-137050000D01*
X105550000Y-137050000D02*
X106500000Y-138000000D01*
X106500000Y-138000000D02*
X106500000Y-139250000D01*
D43*
X122020000Y-113500000D02*
X116999999Y-113499999D01*
X116999999Y-113499999D02*
X115500000Y-112000000D01*
D41*
X146500000Y-108025000D02*
X144775000Y-108025000D01*
X144775000Y-108025000D02*
X144750000Y-108000000D01*
X138000000Y-108025000D02*
X136275000Y-108025000D01*
X136275000Y-108025000D02*
X136250000Y-108000000D01*
D42*
X136500000Y-115875000D02*
X136500000Y-117250000D01*
X136500000Y-117250000D02*
X136250000Y-117500000D01*
X136250000Y-117500000D02*
X135500000Y-117500000D01*
X145000000Y-115875000D02*
X145000000Y-117250000D01*
X145000000Y-117250000D02*
X144750000Y-117500000D01*
X144750000Y-117500000D02*
X143750000Y-117500000D01*
X140500000Y-115775000D02*
X140500000Y-117000000D01*
X132000000Y-115775000D02*
X132000000Y-117250000D01*
D41*
X110500000Y-137457122D02*
X110500000Y-138684315D01*
X110042878Y-137000000D02*
X110500000Y-137457122D01*
X110500000Y-138684315D02*
X110500000Y-139250000D01*
X109325000Y-137000000D02*
X110042878Y-137000000D01*
D40*
X109725000Y-134250000D02*
X108250000Y-134250000D01*
X120925000Y-134130000D02*
X120925000Y-132925000D01*
X120925000Y-132925000D02*
X120475000Y-132475000D01*
X120475000Y-132475000D02*
X120475000Y-131500000D01*
D42*
X152225000Y-137250000D02*
X150750000Y-137250000D01*
X135000000Y-125775000D02*
X133275000Y-125775000D01*
D41*
X133275000Y-125775000D02*
X133250000Y-125750000D01*
D40*
X141000000Y-124225000D02*
X141000000Y-122250000D01*
D42*
X143000000Y-124225000D02*
X141000000Y-124225000D01*
X135000000Y-125775000D02*
X135000000Y-128225000D01*
D40*
%TO.N,USB_3V3OUT*%
X120275000Y-139870000D02*
X120275000Y-142300000D01*
X120275000Y-142300000D02*
X120225000Y-142350000D01*
X120275000Y-138525000D02*
X120000000Y-138250000D01*
X120275000Y-139870000D02*
X120275000Y-138525000D01*
D41*
X122225000Y-134130000D02*
X122225000Y-135700000D01*
X122225000Y-135700000D02*
X122500000Y-135975000D01*
X122875000Y-134130000D02*
X122875000Y-135600000D01*
X122875000Y-135600000D02*
X122500000Y-135975000D01*
D40*
X120275000Y-142700000D02*
X120225000Y-142750000D01*
D44*
%TO.N,+POWER*%
X110000000Y-120800000D02*
X112550000Y-118250000D01*
X118550000Y-119550000D02*
X120975000Y-119550000D01*
X112550000Y-118250000D02*
X117250000Y-118250000D01*
X117250000Y-118250000D02*
X118550000Y-119550000D01*
X154025000Y-117450000D02*
X153050000Y-117450000D01*
X153050000Y-117450000D02*
X152750000Y-117750000D01*
X150500000Y-117750000D02*
X149750000Y-117000000D01*
X152750000Y-117750000D02*
X150500000Y-117750000D01*
X149750000Y-117000000D02*
X149750000Y-113500000D01*
X149750000Y-113500000D02*
X148750000Y-112500000D01*
X148750000Y-112500000D02*
X146500000Y-112500000D01*
D43*
X126980000Y-113500000D02*
X129000000Y-113500000D01*
X129000000Y-113500000D02*
X130000000Y-112500000D01*
D44*
X146500000Y-110975000D02*
X146500000Y-112500000D01*
X138000000Y-110975000D02*
X138000000Y-112500000D01*
X120975000Y-119550000D02*
X125450000Y-119550000D01*
X125450000Y-119550000D02*
X126980000Y-118020000D01*
X126980000Y-118020000D02*
X126980000Y-113500000D01*
D43*
X126530000Y-107500000D02*
X126530000Y-111030000D01*
X126530000Y-111030000D02*
X126980000Y-111480000D01*
X126980000Y-111480000D02*
X126980000Y-113500000D01*
D44*
X146500000Y-110975000D02*
X145025000Y-110975000D01*
X145025000Y-110975000D02*
X144625000Y-111375000D01*
X144625000Y-111375000D02*
X144000000Y-111375000D01*
X138000000Y-110975000D02*
X136525000Y-110975000D01*
X136525000Y-110975000D02*
X136125000Y-111375000D01*
X136125000Y-111375000D02*
X135500000Y-111375000D01*
X165000000Y-116200000D02*
X162450000Y-118750000D01*
X162450000Y-118750000D02*
X157500000Y-118750000D01*
X157500000Y-118750000D02*
X156200000Y-117450000D01*
X156200000Y-117450000D02*
X154025000Y-117450000D01*
D41*
%TO.N,+12V*%
X132000000Y-105750000D02*
X133500000Y-105750000D01*
X133500000Y-105750000D02*
X134000000Y-106250000D01*
X134000000Y-106250000D02*
X134000000Y-108537500D01*
D44*
X134000000Y-110389000D02*
X134000000Y-111375000D01*
X134000000Y-108537500D02*
X134000000Y-110389000D01*
D42*
X136500000Y-114125000D02*
X137625000Y-114125000D01*
X138250000Y-114750000D02*
X138250000Y-118000000D01*
X137625000Y-114125000D02*
X138250000Y-114750000D01*
X138250000Y-118000000D02*
X137000000Y-119250000D01*
X137000000Y-119250000D02*
X137000000Y-124225000D01*
X137000000Y-124225000D02*
X135000000Y-124225000D01*
X139000000Y-124225000D02*
X137000000Y-124225000D01*
X134000000Y-114225000D02*
X136400000Y-114225000D01*
X136400000Y-114225000D02*
X136500000Y-114125000D01*
D45*
X134000000Y-111375000D02*
X134000000Y-114225000D01*
D41*
%TO.N,+5V*%
X129750000Y-137260000D02*
X129750000Y-138500000D01*
X129750000Y-138500000D02*
X131750000Y-140500000D01*
X131750000Y-140500000D02*
X141500000Y-140500000D01*
X141500000Y-140500000D02*
X142000000Y-140000000D01*
X129750000Y-137260000D02*
X129740000Y-137260000D01*
X129740000Y-137260000D02*
X129730000Y-137250000D01*
D42*
X140750000Y-135725000D02*
X141635000Y-135725000D01*
X141635000Y-135725000D02*
X142230000Y-135130000D01*
X142230000Y-135130000D02*
X143294999Y-135130000D01*
X140750000Y-134250000D02*
X140750000Y-135725000D01*
D41*
X140500000Y-105750000D02*
X142000000Y-105750000D01*
X142500000Y-106250000D02*
X142500000Y-108537500D01*
X142000000Y-105750000D02*
X142500000Y-106250000D01*
D44*
X145000000Y-114125000D02*
X146125000Y-114125000D01*
X146125000Y-114125000D02*
X146750000Y-114750000D01*
X145149999Y-119600000D02*
X144750000Y-119999999D01*
X146750000Y-114750000D02*
X146750000Y-117999999D01*
X146750000Y-117999999D02*
X145149999Y-119600000D01*
D42*
X142950000Y-127975000D02*
X142950000Y-128950000D01*
X142950000Y-128950000D02*
X143500000Y-129500000D01*
X143500000Y-129500000D02*
X144750000Y-129500000D01*
D44*
X142500000Y-110389000D02*
X142500000Y-111375000D01*
X142500000Y-108537500D02*
X142500000Y-110389000D01*
X142500000Y-114225000D02*
X144900000Y-114225000D01*
X144900000Y-114225000D02*
X145000000Y-114125000D01*
D45*
X142500000Y-111375000D02*
X142500000Y-112225000D01*
X142500000Y-112225000D02*
X142500000Y-114225000D01*
D42*
%TO.N,Net-(C9-Pad1)*%
X146000000Y-126270000D02*
X144520000Y-126270000D01*
X144520000Y-126270000D02*
X144025000Y-125775000D01*
X144025000Y-125775000D02*
X143000000Y-125775000D01*
X141000000Y-125775000D02*
X143000000Y-125775000D01*
X141050000Y-127975000D02*
X141050000Y-125825000D01*
D41*
X141050000Y-125825000D02*
X141000000Y-125775000D01*
%TO.N,Net-(C11-Pad1)*%
X143300000Y-140870000D02*
X143300000Y-139609326D01*
X143300000Y-139609326D02*
X142815686Y-139125012D01*
D46*
X139000000Y-135725000D02*
X139000000Y-134250000D01*
X135975000Y-135725000D02*
X135700000Y-135450000D01*
X135700000Y-135450000D02*
X134300000Y-135450000D01*
X137250000Y-135725000D02*
X135975000Y-135725000D01*
X139000000Y-135725000D02*
X137250000Y-135725000D01*
D43*
%TO.N,Net-(D1-PadA)*%
X110000000Y-112000000D02*
X110000000Y-109250000D01*
X110000000Y-109250000D02*
X111750000Y-107500000D01*
X111750000Y-107500000D02*
X121390000Y-107500000D01*
X121390000Y-107500000D02*
X122470000Y-107500000D01*
D42*
%TO.N,INPUT_A+*%
X124391903Y-128500000D02*
X123750000Y-128500000D01*
X123184315Y-128500000D02*
X123750000Y-128500000D01*
X115400000Y-128500000D02*
X123184315Y-128500000D01*
D41*
X123751883Y-128500000D02*
X123750000Y-128500000D01*
D42*
X111900000Y-125000000D02*
X115400000Y-128500000D01*
X110000000Y-125000000D02*
X111900000Y-125000000D01*
X165000000Y-133400000D02*
X162900000Y-135500000D01*
X162900000Y-135500000D02*
X157250000Y-135500000D01*
X157250000Y-135500000D02*
X153750000Y-132000000D01*
X153750000Y-132000000D02*
X130500000Y-132000000D01*
X130500000Y-132000000D02*
X127000000Y-128500000D01*
X127000000Y-128500000D02*
X124391903Y-128500000D01*
X123750000Y-125000000D02*
X123750000Y-124250000D01*
X123750000Y-124250000D02*
X123500000Y-124000000D01*
X123500000Y-124000000D02*
X122260000Y-124000000D01*
X123025000Y-121725000D02*
X122260000Y-122490000D01*
X122260000Y-122490000D02*
X122260000Y-124000000D01*
X123025000Y-120500000D02*
X123025000Y-121725000D01*
D45*
%TO.N,INPUT_B+*%
X165000000Y-129200000D02*
X167300000Y-129200000D01*
X167300000Y-129200000D02*
X168250000Y-128250000D01*
X168250000Y-128250000D02*
X168250000Y-112750000D01*
X168250000Y-112750000D02*
X167500000Y-112000000D01*
X167500000Y-112000000D02*
X165000000Y-112000000D01*
D42*
X151975000Y-116500000D02*
X151975000Y-115025000D01*
X151975000Y-115025000D02*
X152500000Y-114500000D01*
X152500000Y-114500000D02*
X152500000Y-113000000D01*
X151975000Y-116500000D02*
X155750000Y-116500000D01*
X155750000Y-116500000D02*
X158250000Y-114000000D01*
X158250000Y-114000000D02*
X161250000Y-114000000D01*
X161250000Y-114000000D02*
X163250000Y-112000000D01*
X163250000Y-112000000D02*
X165000000Y-112000000D01*
%TO.N,Net-(D4-PadC)*%
X120740000Y-124000000D02*
X120740000Y-125985000D01*
D41*
X120740000Y-125985000D02*
X120725000Y-126000000D01*
D42*
%TO.N,Net-(D5-PadC)*%
X154050000Y-111000000D02*
X154050000Y-112970000D01*
D41*
X154050000Y-112970000D02*
X154020000Y-113000000D01*
D40*
%TO.N,Net-(D6-Pad1)*%
X142197166Y-137775001D02*
X140697167Y-139275001D01*
X143840987Y-137775001D02*
X142197166Y-137775001D01*
X144964987Y-137800013D02*
X143865999Y-137800013D01*
X146550000Y-136215000D02*
X144964987Y-137800013D01*
X143865999Y-137800013D02*
X143840987Y-137775001D01*
X146550000Y-135130000D02*
X146550000Y-136215000D01*
X140697167Y-139275001D02*
X137250000Y-139275001D01*
X133350000Y-137500000D02*
X133350000Y-138850000D01*
X133350000Y-138850000D02*
X133775001Y-139275001D01*
X133775001Y-139275001D02*
X137250000Y-139275001D01*
D41*
X137250000Y-137275000D02*
X137250000Y-137950000D01*
D40*
X137250000Y-137950000D02*
X137250000Y-139275001D01*
D46*
%TO.N,Net-(D7-PadC)*%
X129750000Y-135740000D02*
X131485000Y-135740000D01*
D41*
X131485000Y-135740000D02*
X131500000Y-135725000D01*
D40*
%TO.N,Net-(F1-Pad2)*%
X107000000Y-132250000D02*
X107750000Y-131500000D01*
X107750000Y-131500000D02*
X109015000Y-131500000D01*
X107000000Y-133500000D02*
X107000000Y-132250000D01*
X106050000Y-134450000D02*
X107000000Y-133500000D01*
X104080000Y-134450000D02*
X106050000Y-134450000D01*
D42*
%TO.N,MOTOR_RX_B*%
X153500000Y-123730000D02*
X155770000Y-123730000D01*
X155770000Y-123730000D02*
X157250000Y-122250000D01*
X157250000Y-122250000D02*
X160500000Y-122250000D01*
X160500000Y-122250000D02*
X163250000Y-125000000D01*
X163250000Y-125000000D02*
X165000000Y-125000000D01*
%TO.N,MOTOR_RX_A*%
X153500000Y-126270000D02*
X155730000Y-126270000D01*
X155730000Y-126270000D02*
X157000000Y-125000000D01*
X157000000Y-125000000D02*
X159500000Y-125000000D01*
D40*
%TO.N,Net-(J?1-Pad3)*%
X104080000Y-135750000D02*
X105750000Y-135750000D01*
X105750000Y-135750000D02*
X107950000Y-137950000D01*
X107950000Y-137950000D02*
X109325000Y-137950000D01*
%TO.N,Net-(J?1-Pad2)*%
X104080000Y-135100000D02*
X106100000Y-135100000D01*
X106100000Y-135100000D02*
X107050000Y-136050000D01*
X107050000Y-136050000D02*
X109325000Y-136050000D01*
D42*
%TO.N,INPUT_A-*%
X159500000Y-133400000D02*
X156400000Y-133400000D01*
X156400000Y-133400000D02*
X154250000Y-131250000D01*
X154250000Y-131250000D02*
X131000000Y-131250000D01*
X131000000Y-131250000D02*
X127250000Y-127500000D01*
X127250000Y-127500000D02*
X122250000Y-127500000D01*
X122250000Y-127500000D02*
X116000000Y-127500000D01*
X122275000Y-126740000D02*
X122250000Y-126765000D01*
X122275000Y-126000000D02*
X122275000Y-126740000D01*
X122250000Y-126765000D02*
X122250000Y-127500000D01*
X116000000Y-127500000D02*
X115500000Y-127000000D01*
X115500000Y-127000000D02*
X115500000Y-125000000D01*
D45*
%TO.N,INPUT_B-*%
X159500000Y-129200000D02*
X161550000Y-131250000D01*
X161550000Y-131250000D02*
X167000000Y-131250000D01*
X167000000Y-131250000D02*
X169250000Y-129000000D01*
X169250000Y-129000000D02*
X169250000Y-111500000D01*
X169250000Y-111500000D02*
X167250000Y-109500000D01*
X167250000Y-109500000D02*
X162000000Y-109500000D01*
X162000000Y-109500000D02*
X160999999Y-110500001D01*
X160999999Y-110500001D02*
X159500000Y-112000000D01*
D42*
X152500000Y-111000000D02*
X152500000Y-110000000D01*
X152500000Y-110000000D02*
X153000000Y-109500000D01*
X153000000Y-109500000D02*
X155000000Y-109500000D01*
X155000000Y-109500000D02*
X157500000Y-112000000D01*
X157500000Y-112000000D02*
X159500000Y-112000000D01*
%TO.N,MOTOR_TX_B*%
X153775000Y-137250000D02*
X155250000Y-137250000D01*
X155250000Y-137250000D02*
X155600000Y-137600000D01*
X155600000Y-137600000D02*
X159500000Y-137600000D01*
%TO.N,MOTOR_TX_A*%
X153775000Y-139100000D02*
X155100000Y-139100000D01*
X155100000Y-139100000D02*
X156250000Y-140250000D01*
X156250000Y-140250000D02*
X162350000Y-140250000D01*
X162350000Y-140250000D02*
X163500001Y-139099999D01*
X163500001Y-139099999D02*
X165000000Y-137600000D01*
%TO.N,Net-(Q1-Pad1)*%
X142000000Y-130025000D02*
X140715000Y-130025000D01*
X140715000Y-130025000D02*
X138950000Y-128260000D01*
X138950000Y-128260000D02*
X138950000Y-127975000D01*
X139000000Y-125775000D02*
X139000000Y-127925000D01*
D41*
X139000000Y-127925000D02*
X138950000Y-127975000D01*
D42*
%TO.N,Net-(Q1-Pad2)*%
X137050000Y-127975000D02*
X137050000Y-125825000D01*
D41*
X137050000Y-125825000D02*
X137000000Y-125775000D01*
D42*
%TO.N,Net-(Q1-Pad3)*%
X133000000Y-129775000D02*
X135000000Y-129775000D01*
X138000000Y-130025000D02*
X135250000Y-130025000D01*
X135250000Y-130025000D02*
X135000000Y-129775000D01*
%TO.N,Net-(R1-Pad1)*%
X134000000Y-115775000D02*
X133775000Y-115775000D01*
X133775000Y-115775000D02*
X132500000Y-114500000D01*
X132500000Y-114500000D02*
X132275000Y-114500000D01*
X132275000Y-114500000D02*
X132000000Y-114225000D01*
X132500000Y-112500000D02*
X132000000Y-113000000D01*
X132000000Y-113000000D02*
X132000000Y-114225000D01*
X132500000Y-111375000D02*
X132500000Y-112500000D01*
%TO.N,Net-(R3-Pad1)*%
X142500000Y-115775000D02*
X142275000Y-115775000D01*
X142275000Y-115775000D02*
X140725000Y-114225000D01*
X140725000Y-114225000D02*
X140500000Y-114225000D01*
X141000000Y-112500000D02*
X140500000Y-113000000D01*
X140500000Y-113000000D02*
X140500000Y-114225000D01*
X141000000Y-111375000D02*
X141000000Y-112500000D01*
D40*
%TO.N,Net-(R5-Pad2)*%
X111675000Y-136050000D02*
X114675000Y-136050000D01*
D41*
X114675000Y-136050000D02*
X114725000Y-136000000D01*
%TO.N,USB_D-*%
X116275000Y-136000000D02*
X117250000Y-136000000D01*
X117250000Y-136000000D02*
X118000000Y-136750000D01*
X118000000Y-136750000D02*
X123000000Y-136750000D01*
X123000000Y-136750000D02*
X123525000Y-136225000D01*
X123525000Y-136225000D02*
X123525000Y-134130000D01*
%TO.N,USB_D+*%
X116300000Y-138000000D02*
X117250000Y-138000000D01*
X117250000Y-138000000D02*
X118000000Y-137250000D01*
X118000000Y-137250000D02*
X123000000Y-137250000D01*
X123000000Y-137250000D02*
X123525000Y-137775000D01*
X123525000Y-137775000D02*
X123525000Y-139870000D01*
D40*
%TO.N,Net-(R6-Pad2)*%
X111675000Y-137950000D02*
X114700000Y-137950000D01*
D41*
X114700000Y-137950000D02*
X114750000Y-138000000D01*
%TO.N,Net-(R9-Pad2)*%
X145900000Y-133592880D02*
X145307120Y-133000000D01*
X145307120Y-133000000D02*
X133565691Y-133000000D01*
X145900000Y-135130000D02*
X145900000Y-133592880D01*
X133565691Y-133000000D02*
X133000006Y-133000000D01*
D42*
X133000000Y-128225000D02*
X133000000Y-127000000D01*
D40*
%TO.N,Net-(R14-Pad2)*%
X146550000Y-140870000D02*
X146550000Y-142950000D01*
D41*
X146550000Y-142950000D02*
X146500000Y-143000000D01*
D40*
X146500000Y-143000000D02*
X150000000Y-143000000D01*
X150000000Y-143000000D02*
X152225000Y-140775000D01*
X152225000Y-140775000D02*
X152225000Y-139100000D01*
X145250000Y-140870000D02*
X145250000Y-142250000D01*
X145250000Y-142250000D02*
X146000000Y-143000000D01*
X146000000Y-143000000D02*
X146500000Y-143000000D01*
%TO.N,Net-(R17-Pad2)*%
X140924988Y-139825012D02*
X142424988Y-138325012D01*
X131500000Y-137275000D02*
X131500000Y-138500000D01*
X131500000Y-138500000D02*
X132825012Y-139825012D01*
X132825012Y-139825012D02*
X140924988Y-139825012D01*
X142424988Y-138325012D02*
X143379112Y-138325012D01*
X143379112Y-138325012D02*
X143950000Y-138895900D01*
X143950000Y-138895900D02*
X143950000Y-139785000D01*
X143950000Y-139785000D02*
X143950000Y-140870000D01*
D41*
%TO.N,SERIAL_RX*%
X143950000Y-135130000D02*
X143950000Y-136450000D01*
X144100001Y-136600001D02*
X144500000Y-137000000D01*
X143950000Y-136450000D02*
X144100001Y-136600001D01*
D40*
X121684315Y-138250000D02*
X122250000Y-138250000D01*
X120925000Y-139870000D02*
X120925000Y-138575000D01*
X120925000Y-138575000D02*
X121250000Y-138250000D01*
X121250000Y-138250000D02*
X121684315Y-138250000D01*
%TO.N,SERIAL_TX*%
X119750000Y-144000000D02*
X123400000Y-144000000D01*
X123400000Y-144000000D02*
X124500000Y-142900000D01*
X124500000Y-142900000D02*
X124500000Y-142000000D01*
X118975000Y-139870000D02*
X118975000Y-143475000D01*
X118975000Y-143475000D02*
X119500000Y-144000000D01*
X119500000Y-144000000D02*
X119750000Y-144000000D01*
X119750000Y-144000000D02*
X119620000Y-144130000D01*
X119620000Y-144130000D02*
X119620000Y-147000000D01*
X147200000Y-135130000D02*
X147200000Y-137800000D01*
X147200000Y-137800000D02*
X145900000Y-139100000D01*
X144600000Y-140870000D02*
X144600000Y-142900000D01*
X144600000Y-142900000D02*
X144500000Y-143000000D01*
X144600000Y-140870000D02*
X144600000Y-139400000D01*
X144600000Y-139400000D02*
X144900000Y-139100000D01*
X144900000Y-139100000D02*
X145900000Y-139100000D01*
X145900000Y-139100000D02*
X145900000Y-140870000D01*
D41*
%TO.N,Net-(U5-Pad11)*%
X145250000Y-134095000D02*
X145250000Y-135130000D01*
X145100009Y-133500011D02*
X145250000Y-133650002D01*
X144699989Y-133500011D02*
X145100009Y-133500011D01*
X144600000Y-135130000D02*
X144600000Y-133600000D01*
X145250000Y-133650002D02*
X145250000Y-134095000D01*
X144600000Y-133600000D02*
X144699989Y-133500011D01*
%TD*%
M02*
