%TF.GenerationSoftware,KiCad,Pcbnew,no-vcs-found*%
%TF.CreationDate,2017-10-06T14:05:24+10:30*%
%TF.ProjectId,clearpath-sc-single-channel,636C656172706174682D73632D73696E,1.0*%
%TF.SameCoordinates,Original*%
%TF.FileFunction,Soldermask,Top*%
%TF.FilePolarity,Negative*%
%FSLAX46Y46*%
G04 Gerber Fmt 4.6, Leading zero omitted, Abs format (unit mm)*
G04 Created by KiCad (PCBNEW no-vcs-found) date Fri Oct  6 14:05:24 2017*
%MOMM*%
%LPD*%
G01*
G04 APERTURE LIST*
%ADD10R,1.380000X3.010000*%
%ADD11R,2.200000X1.400000*%
%ADD12R,3.200000X3.200000*%
%ADD13C,3.200000*%
%ADD14R,1.120000X1.170000*%
%ADD15R,2.020000X1.360000*%
%ADD16R,1.670000X1.360000*%
%ADD17R,3.470000X1.780000*%
%ADD18R,1.170000X1.120000*%
%ADD19R,1.860000X1.820000*%
%ADD20R,1.380000X0.810000*%
%ADD21R,1.110000X1.130000*%
%ADD22R,0.810000X1.380000*%
%ADD23R,1.130000X1.110000*%
%ADD24R,2.100000X1.375000*%
%ADD25R,2.100000X2.575000*%
%ADD26R,2.300000X1.675000*%
%ADD27R,1.580000X0.650000*%
%ADD28C,6.700000*%
%ADD29R,1.180000X1.050000*%
%ADD30R,1.050000X1.180000*%
%ADD31R,0.900000X1.400000*%
%ADD32R,0.900000X1.200000*%
%ADD33R,2.200000X3.125000*%
%ADD34R,0.610000X1.770000*%
%ADD35R,1.550000X0.760000*%
%ADD36C,1.700000*%
%ADD37R,1.927200X2.232000*%
%ADD38O,1.927200X2.232000*%
G04 APERTURE END LIST*
D10*
%TO.C,F1*%
X109015000Y-131500000D03*
X111985000Y-131500000D03*
%TD*%
D11*
%TO.C,FB1*%
X153500000Y-126270000D03*
X153500000Y-123730000D03*
X146000000Y-123730000D03*
X146000000Y-126270000D03*
%TD*%
D12*
%TO.C,P4*%
X165000000Y-125000000D03*
D13*
X165000000Y-129200000D03*
X165000000Y-133400000D03*
X165000000Y-137600000D03*
X159500000Y-125000000D03*
X159500000Y-129200000D03*
X159500000Y-133400000D03*
X159500000Y-137600000D03*
X172300000Y-125000000D03*
X172300000Y-137600000D03*
%TD*%
D12*
%TO.C,P2*%
X110000000Y-125000000D03*
D13*
X110000000Y-120800000D03*
X115500000Y-125000000D03*
X115500000Y-120800000D03*
X102700000Y-122900000D03*
%TD*%
D12*
%TO.C,P3*%
X165000000Y-112000000D03*
D13*
X165000000Y-116200000D03*
X159500000Y-112000000D03*
X159500000Y-116200000D03*
X172300000Y-114100000D03*
%TD*%
D12*
%TO.C,P1*%
X110000000Y-112000000D03*
D13*
X115500000Y-112000000D03*
X102700000Y-112000000D03*
%TD*%
D14*
%TO.C,C1*%
X122025000Y-131500000D03*
X120475000Y-131500000D03*
%TD*%
%TO.C,C2*%
X121775000Y-142350000D03*
X120225000Y-142350000D03*
%TD*%
D15*
%TO.C,C3*%
X138000000Y-108025000D03*
X138000000Y-110975000D03*
%TD*%
D16*
%TO.C,C4*%
X136500000Y-115875000D03*
X136500000Y-114125000D03*
%TD*%
D17*
%TO.C,C5*%
X126980000Y-113500000D03*
X122020000Y-113500000D03*
%TD*%
D15*
%TO.C,C6*%
X146500000Y-110975000D03*
X146500000Y-108025000D03*
%TD*%
D16*
%TO.C,C7*%
X145000000Y-114125000D03*
X145000000Y-115875000D03*
%TD*%
D14*
%TO.C,C8*%
X109725000Y-134250000D03*
X111275000Y-134250000D03*
%TD*%
D18*
%TO.C,C9*%
X141000000Y-124225000D03*
X141000000Y-125775000D03*
%TD*%
%TO.C,C10*%
X135000000Y-124225000D03*
X135000000Y-125775000D03*
%TD*%
%TO.C,C11*%
X139000000Y-135725000D03*
X139000000Y-137275000D03*
%TD*%
D19*
%TO.C,D1*%
X126530000Y-107500000D03*
X122470000Y-107500000D03*
%TD*%
D20*
%TO.C,D2*%
X120975000Y-119550000D03*
X120975000Y-121450000D03*
X123025000Y-120500000D03*
%TD*%
%TO.C,D3*%
X151975000Y-116500000D03*
X154025000Y-115550000D03*
X154025000Y-117450000D03*
%TD*%
D21*
%TO.C,D4*%
X120740000Y-124000000D03*
X122260000Y-124000000D03*
%TD*%
%TO.C,D5*%
X154020000Y-113000000D03*
X152500000Y-113000000D03*
%TD*%
D22*
%TO.C,D6*%
X134300000Y-135450000D03*
X135250000Y-137500000D03*
X133350000Y-137500000D03*
%TD*%
D23*
%TO.C,D7*%
X129750000Y-137260000D03*
X129750000Y-135740000D03*
%TD*%
D24*
%TO.C,J?1*%
X101420000Y-136590000D03*
X101420000Y-134910000D03*
D25*
X101420000Y-138660000D03*
X101420000Y-132840000D03*
D26*
X103720000Y-138212500D03*
X103720000Y-133287500D03*
D27*
X104080000Y-137050000D03*
X104080000Y-136400000D03*
X104080000Y-135750000D03*
X104080000Y-135100000D03*
X104080000Y-134450000D03*
%TD*%
D28*
%TO.C,MNT1*%
X171000000Y-104000000D03*
%TD*%
%TO.C,MNT2*%
X171000000Y-146000000D03*
%TD*%
%TO.C,MNT3*%
X104000000Y-146000000D03*
%TD*%
%TO.C,MNT4*%
X104000000Y-104000000D03*
%TD*%
D22*
%TO.C,Q1*%
X138950000Y-127975000D03*
X137050000Y-127975000D03*
X138000000Y-130025000D03*
%TD*%
%TO.C,Q2*%
X142950000Y-127975000D03*
X141050000Y-127975000D03*
X142000000Y-130025000D03*
%TD*%
D29*
%TO.C,R1*%
X132000000Y-114225000D03*
X132000000Y-115775000D03*
%TD*%
%TO.C,R2*%
X134000000Y-114225000D03*
X134000000Y-115775000D03*
%TD*%
%TO.C,R3*%
X140500000Y-115775000D03*
X140500000Y-114225000D03*
%TD*%
%TO.C,R4*%
X142500000Y-115775000D03*
X142500000Y-114225000D03*
%TD*%
D30*
%TO.C,R5*%
X114725000Y-136000000D03*
X116275000Y-136000000D03*
%TD*%
%TO.C,R6*%
X116300000Y-138000000D03*
X114750000Y-138000000D03*
%TD*%
%TO.C,R7*%
X122275000Y-126000000D03*
X120725000Y-126000000D03*
%TD*%
%TO.C,R8*%
X154050000Y-111000000D03*
X152500000Y-111000000D03*
%TD*%
D29*
%TO.C,R9*%
X133000000Y-129775000D03*
X133000000Y-128225000D03*
%TD*%
%TO.C,R10*%
X137000000Y-124225000D03*
X137000000Y-125775000D03*
%TD*%
%TO.C,R11*%
X135000000Y-129775000D03*
X135000000Y-128225000D03*
%TD*%
%TO.C,R12*%
X139000000Y-124225000D03*
X139000000Y-125775000D03*
%TD*%
%TO.C,R13*%
X143000000Y-125775000D03*
X143000000Y-124225000D03*
%TD*%
D30*
%TO.C,R14*%
X153775000Y-139100000D03*
X152225000Y-139100000D03*
%TD*%
%TO.C,R15*%
X152225000Y-137250000D03*
X153775000Y-137250000D03*
%TD*%
D29*
%TO.C,R16*%
X137250000Y-137275000D03*
X137250000Y-135725000D03*
%TD*%
%TO.C,R17*%
X131500000Y-137275000D03*
X131500000Y-135725000D03*
%TD*%
D31*
%TO.C,U1*%
X132500000Y-111375000D03*
X134000000Y-111375000D03*
X135500000Y-111375000D03*
D32*
X134000000Y-110389000D03*
D33*
X134000000Y-108537500D03*
%TD*%
D34*
%TO.C,U2*%
X118975000Y-134130000D03*
X119625000Y-134130000D03*
X120275000Y-134130000D03*
X120925000Y-134130000D03*
X121575000Y-134130000D03*
X122225000Y-134130000D03*
X122875000Y-134130000D03*
X123525000Y-134130000D03*
X123525000Y-139870000D03*
X122875000Y-139870000D03*
X122225000Y-139870000D03*
X121575000Y-139870000D03*
X120925000Y-139870000D03*
X120275000Y-139870000D03*
X119625000Y-139870000D03*
X118975000Y-139870000D03*
%TD*%
D35*
%TO.C,U3*%
X109325000Y-136050000D03*
X109325000Y-137000000D03*
X109325000Y-137950000D03*
X111675000Y-137950000D03*
X111675000Y-137000000D03*
X111675000Y-136050000D03*
%TD*%
D33*
%TO.C,U4*%
X142500000Y-108537500D03*
D32*
X142500000Y-110389000D03*
D31*
X144000000Y-111375000D03*
X142500000Y-111375000D03*
X141000000Y-111375000D03*
%TD*%
D34*
%TO.C,U5*%
X143300000Y-135130000D03*
X143950000Y-135130000D03*
X144600000Y-135130000D03*
X145250000Y-135130000D03*
X145900000Y-135130000D03*
X146550000Y-135130000D03*
X147200000Y-135130000D03*
X147200000Y-140870000D03*
X146550000Y-140870000D03*
X145900000Y-140870000D03*
X145250000Y-140870000D03*
X144600000Y-140870000D03*
X143950000Y-140870000D03*
X143300000Y-140870000D03*
%TD*%
D36*
%TO.C,TEST1*%
X132000000Y-105750000D03*
%TD*%
%TO.C,TEST2*%
X140500000Y-105750000D03*
%TD*%
%TO.C,TEST3*%
X150750000Y-105750000D03*
%TD*%
D18*
%TO.C,C12*%
X140750000Y-135725000D03*
X140750000Y-137275000D03*
%TD*%
D37*
%TO.C,P5*%
X112000000Y-147000000D03*
D38*
X114540000Y-147000000D03*
X117080000Y-147000000D03*
X119620000Y-147000000D03*
X122160000Y-147000000D03*
X124700000Y-147000000D03*
X127240000Y-147000000D03*
X129780000Y-147000000D03*
%TD*%
M02*
