M48
;DRILL file {KiCad no-vcs-found} date Fri Oct  6 14:05:30 2017
;FORMAT={-:-/ absolute / metric / decimal}
FMAT,2
METRIC,TZ
T1C0.400
T2C1.000
T3C1.016
T4C1.800
T5C3.200
%
G90
G05
M71
T1
X106.5Y-139.25
X108.25Y-134.25
X110.5Y-139.25
X119.25Y-131.5
X120.Y-138.25
X122.25Y-138.25
X122.5Y-135.975
X123.2Y-142.4
X123.75Y-125.
X123.75Y-128.5
X124.5Y-142.
X130.Y-112.5
X132.Y-117.25
X133.Y-127.
X133.Y-133.
X133.25Y-125.75
X135.5Y-117.5
X136.25Y-108.
X138.Y-112.5
X139.Y-134.25
X139.Y-138.475
X140.5Y-117.
X140.75Y-134.25
X141.Y-122.25
X142.Y-140.
X142.816Y-139.125
X143.75Y-117.5
X144.5Y-137.
X144.5Y-143.
X144.75Y-108.
X144.75Y-120.
X144.75Y-129.5
X146.5Y-112.5
X148.75Y-142.
X150.75Y-137.25
T2
X150.75Y-105.75
X140.5Y-105.75
X132.Y-105.75
T3
X112.Y-147.
X114.54Y-147.
X117.08Y-147.
X119.62Y-147.
X122.16Y-147.
X124.7Y-147.
X127.24Y-147.
X129.78Y-147.
T4
X110.Y-120.8
X110.Y-125.
X115.5Y-120.8
X115.5Y-125.
X159.5Y-112.
X159.5Y-116.2
X165.Y-112.
X165.Y-116.2
X159.5Y-125.
X159.5Y-129.2
X159.5Y-133.4
X159.5Y-137.6
X165.Y-125.
X165.Y-129.2
X165.Y-133.4
X165.Y-137.6
X110.Y-112.
X115.5Y-112.
T5
X171.Y-146.
X104.Y-104.
X104.Y-146.
X171.Y-104.
T0
M30
