%TF.GenerationSoftware,KiCad,Pcbnew,no-vcs-found*%
%TF.CreationDate,2017-10-06T14:05:24+10:30*%
%TF.ProjectId,clearpath-sc-single-channel,636C656172706174682D73632D73696E,1.0*%
%TF.SameCoordinates,Original*%
%TF.FileFunction,Paste,Top*%
%TF.FilePolarity,Positive*%
%FSLAX46Y46*%
G04 Gerber Fmt 4.6, Leading zero omitted, Abs format (unit mm)*
G04 Created by KiCad (PCBNEW no-vcs-found) date Fri Oct  6 14:05:24 2017*
%MOMM*%
%LPD*%
G01*
G04 APERTURE LIST*
%ADD10C,0.010000*%
%ADD11R,0.991200X2.360400*%
%ADD12R,1.680000X1.008000*%
%ADD13R,0.772800X0.814800*%
%ADD14R,1.528800X0.974400*%
%ADD15R,1.234800X0.974400*%
%ADD16R,2.746800X1.327200*%
%ADD17R,0.814800X0.772800*%
%ADD18R,1.394400X1.360800*%
%ADD19R,0.991200X0.512400*%
%ADD20R,0.764400X0.781200*%
%ADD21R,0.512400X0.991200*%
%ADD22R,0.781200X0.764400*%
%ADD23R,1.596000X0.987000*%
%ADD24R,1.596000X1.995000*%
%ADD25R,1.764000X1.239000*%
%ADD26R,1.159200X0.378000*%
%ADD27R,0.823200X0.714000*%
%ADD28R,0.714000X0.823200*%
%ADD29R,0.588000X1.008000*%
%ADD30R,0.344400X1.318800*%
%ADD31R,1.134000X0.470400*%
G04 APERTURE END LIST*
D10*
%TO.C,U1*%
G36*
X133400000Y-109500000D02*
X134600000Y-109500000D01*
X134600000Y-108300000D01*
X133400000Y-108300000D01*
X133400000Y-109500000D01*
X133400000Y-109500000D01*
G37*
X133400000Y-109500000D02*
X134600000Y-109500000D01*
X134600000Y-108300000D01*
X133400000Y-108300000D01*
X133400000Y-109500000D01*
G36*
X133050000Y-108000000D02*
X134950000Y-108000000D01*
X134950000Y-107150000D01*
X133050000Y-107150000D01*
X133050000Y-108000000D01*
X133050000Y-108000000D01*
G37*
X133050000Y-108000000D02*
X134950000Y-108000000D01*
X134950000Y-107150000D01*
X133050000Y-107150000D01*
X133050000Y-108000000D01*
%TO.C,U4*%
G36*
X141550000Y-108000000D02*
X143450000Y-108000000D01*
X143450000Y-107150000D01*
X141550000Y-107150000D01*
X141550000Y-108000000D01*
X141550000Y-108000000D01*
G37*
X141550000Y-108000000D02*
X143450000Y-108000000D01*
X143450000Y-107150000D01*
X141550000Y-107150000D01*
X141550000Y-108000000D01*
G36*
X141900000Y-109500000D02*
X143100000Y-109500000D01*
X143100000Y-108300000D01*
X141900000Y-108300000D01*
X141900000Y-109500000D01*
X141900000Y-109500000D01*
G37*
X141900000Y-109500000D02*
X143100000Y-109500000D01*
X143100000Y-108300000D01*
X141900000Y-108300000D01*
X141900000Y-109500000D01*
%TD*%
D11*
%TO.C,F1*%
X109015000Y-131500000D03*
X111985000Y-131500000D03*
%TD*%
D12*
%TO.C,FB1*%
X153500000Y-126270000D03*
X153500000Y-123730000D03*
X146000000Y-123730000D03*
X146000000Y-126270000D03*
%TD*%
D13*
%TO.C,C1*%
X122025000Y-131500000D03*
X120475000Y-131500000D03*
%TD*%
%TO.C,C2*%
X121775000Y-142350000D03*
X120225000Y-142350000D03*
%TD*%
D14*
%TO.C,C3*%
X138000000Y-108025000D03*
X138000000Y-110975000D03*
%TD*%
D15*
%TO.C,C4*%
X136500000Y-115875000D03*
X136500000Y-114125000D03*
%TD*%
D16*
%TO.C,C5*%
X126980000Y-113500000D03*
X122020000Y-113500000D03*
%TD*%
D14*
%TO.C,C6*%
X146500000Y-110975000D03*
X146500000Y-108025000D03*
%TD*%
D15*
%TO.C,C7*%
X145000000Y-114125000D03*
X145000000Y-115875000D03*
%TD*%
D13*
%TO.C,C8*%
X109725000Y-134250000D03*
X111275000Y-134250000D03*
%TD*%
D17*
%TO.C,C9*%
X141000000Y-124225000D03*
X141000000Y-125775000D03*
%TD*%
%TO.C,C10*%
X135000000Y-124225000D03*
X135000000Y-125775000D03*
%TD*%
%TO.C,C11*%
X139000000Y-135725000D03*
X139000000Y-137275000D03*
%TD*%
D18*
%TO.C,D1*%
X126530000Y-107500000D03*
X122470000Y-107500000D03*
%TD*%
D19*
%TO.C,D2*%
X120975000Y-119550000D03*
X120975000Y-121450000D03*
X123025000Y-120500000D03*
%TD*%
%TO.C,D3*%
X151975000Y-116500000D03*
X154025000Y-115550000D03*
X154025000Y-117450000D03*
%TD*%
D20*
%TO.C,D4*%
X120740000Y-124000000D03*
X122260000Y-124000000D03*
%TD*%
%TO.C,D5*%
X154020000Y-113000000D03*
X152500000Y-113000000D03*
%TD*%
D21*
%TO.C,D6*%
X134300000Y-135450000D03*
X135250000Y-137500000D03*
X133350000Y-137500000D03*
%TD*%
D22*
%TO.C,D7*%
X129750000Y-137260000D03*
X129750000Y-135740000D03*
%TD*%
D23*
%TO.C,J?1*%
X101420000Y-136590000D03*
X101420000Y-134910000D03*
D24*
X101420000Y-138660000D03*
X101420000Y-132840000D03*
D25*
X103720000Y-138212500D03*
X103720000Y-133287500D03*
D26*
X104080000Y-137050000D03*
X104080000Y-136400000D03*
X104080000Y-135750000D03*
X104080000Y-135100000D03*
X104080000Y-134450000D03*
%TD*%
D21*
%TO.C,Q1*%
X138950000Y-127975000D03*
X137050000Y-127975000D03*
X138000000Y-130025000D03*
%TD*%
%TO.C,Q2*%
X142950000Y-127975000D03*
X141050000Y-127975000D03*
X142000000Y-130025000D03*
%TD*%
D27*
%TO.C,R1*%
X132000000Y-114225000D03*
X132000000Y-115775000D03*
%TD*%
%TO.C,R2*%
X134000000Y-114225000D03*
X134000000Y-115775000D03*
%TD*%
%TO.C,R3*%
X140500000Y-115775000D03*
X140500000Y-114225000D03*
%TD*%
%TO.C,R4*%
X142500000Y-115775000D03*
X142500000Y-114225000D03*
%TD*%
D28*
%TO.C,R5*%
X114725000Y-136000000D03*
X116275000Y-136000000D03*
%TD*%
%TO.C,R6*%
X116300000Y-138000000D03*
X114750000Y-138000000D03*
%TD*%
%TO.C,R7*%
X122275000Y-126000000D03*
X120725000Y-126000000D03*
%TD*%
%TO.C,R8*%
X154050000Y-111000000D03*
X152500000Y-111000000D03*
%TD*%
D27*
%TO.C,R9*%
X133000000Y-129775000D03*
X133000000Y-128225000D03*
%TD*%
%TO.C,R10*%
X137000000Y-124225000D03*
X137000000Y-125775000D03*
%TD*%
%TO.C,R11*%
X135000000Y-129775000D03*
X135000000Y-128225000D03*
%TD*%
%TO.C,R12*%
X139000000Y-124225000D03*
X139000000Y-125775000D03*
%TD*%
%TO.C,R13*%
X143000000Y-125775000D03*
X143000000Y-124225000D03*
%TD*%
D28*
%TO.C,R14*%
X153775000Y-139100000D03*
X152225000Y-139100000D03*
%TD*%
%TO.C,R15*%
X152225000Y-137250000D03*
X153775000Y-137250000D03*
%TD*%
D27*
%TO.C,R16*%
X137250000Y-137275000D03*
X137250000Y-135725000D03*
%TD*%
%TO.C,R17*%
X131500000Y-137275000D03*
X131500000Y-135725000D03*
%TD*%
D29*
%TO.C,U1*%
X132500000Y-111375000D03*
X134000000Y-111375000D03*
X135500000Y-111375000D03*
%TD*%
D30*
%TO.C,U2*%
X118975000Y-134130000D03*
X119625000Y-134130000D03*
X120275000Y-134130000D03*
X120925000Y-134130000D03*
X121575000Y-134130000D03*
X122225000Y-134130000D03*
X122875000Y-134130000D03*
X123525000Y-134130000D03*
X123525000Y-139870000D03*
X122875000Y-139870000D03*
X122225000Y-139870000D03*
X121575000Y-139870000D03*
X120925000Y-139870000D03*
X120275000Y-139870000D03*
X119625000Y-139870000D03*
X118975000Y-139870000D03*
%TD*%
D31*
%TO.C,U3*%
X109325000Y-136050000D03*
X109325000Y-137000000D03*
X109325000Y-137950000D03*
X111675000Y-137950000D03*
X111675000Y-137000000D03*
X111675000Y-136050000D03*
%TD*%
D29*
%TO.C,U4*%
X144000000Y-111375000D03*
X142500000Y-111375000D03*
X141000000Y-111375000D03*
%TD*%
D30*
%TO.C,U5*%
X143300000Y-135130000D03*
X143950000Y-135130000D03*
X144600000Y-135130000D03*
X145250000Y-135130000D03*
X145900000Y-135130000D03*
X146550000Y-135130000D03*
X147200000Y-135130000D03*
X147200000Y-140870000D03*
X146550000Y-140870000D03*
X145900000Y-140870000D03*
X145250000Y-140870000D03*
X144600000Y-140870000D03*
X143950000Y-140870000D03*
X143300000Y-140870000D03*
%TD*%
D17*
%TO.C,C12*%
X140750000Y-135725000D03*
X140750000Y-137275000D03*
%TD*%
M02*
