%TF.GenerationSoftware,KiCad,Pcbnew,no-vcs-found*%
%TF.CreationDate,2017-10-06T14:05:24+10:30*%
%TF.ProjectId,clearpath-sc-single-channel,636C656172706174682D73632D73696E,1.0*%
%TF.SameCoordinates,Original*%
%TF.FileFunction,Drawing*%
%FSLAX46Y46*%
G04 Gerber Fmt 4.6, Leading zero omitted, Abs format (unit mm)*
G04 Created by KiCad (PCBNEW no-vcs-found) date Fri Oct  6 14:05:24 2017*
%MOMM*%
%LPD*%
G01*
G04 APERTURE LIST*
%ADD10C,0.300000*%
%ADD11C,0.150000*%
%ADD12C,0.130000*%
G04 APERTURE END LIST*
D10*
X132000000Y-155528570D02*
X131714285Y-155528570D01*
X131571428Y-155599999D01*
X131500000Y-155671427D01*
X131357142Y-155885713D01*
X131285714Y-156171427D01*
X131285714Y-156742856D01*
X131357142Y-156885713D01*
X131428571Y-156957141D01*
X131571428Y-157028570D01*
X131857142Y-157028570D01*
X132000000Y-156957141D01*
X132071428Y-156885713D01*
X132142857Y-156742856D01*
X132142857Y-156385713D01*
X132071428Y-156242856D01*
X132000000Y-156171427D01*
X131857142Y-156099999D01*
X131571428Y-156099999D01*
X131428571Y-156171427D01*
X131357142Y-156242856D01*
X131285714Y-156385713D01*
X132642857Y-155528570D02*
X133642857Y-155528570D01*
X133000000Y-157028570D01*
X134214285Y-156885713D02*
X134285714Y-156957141D01*
X134214285Y-157028570D01*
X134142857Y-156957141D01*
X134214285Y-156885713D01*
X134214285Y-157028570D01*
X135214285Y-155528570D02*
X135357142Y-155528570D01*
X135500000Y-155599999D01*
X135571428Y-155671427D01*
X135642857Y-155814284D01*
X135714285Y-156099999D01*
X135714285Y-156457141D01*
X135642857Y-156742856D01*
X135571428Y-156885713D01*
X135500000Y-156957141D01*
X135357142Y-157028570D01*
X135214285Y-157028570D01*
X135071428Y-156957141D01*
X135000000Y-156885713D01*
X134928571Y-156742856D01*
X134857142Y-156457141D01*
X134857142Y-156099999D01*
X134928571Y-155814284D01*
X135000000Y-155671427D01*
X135071428Y-155599999D01*
X135214285Y-155528570D01*
X136642857Y-155528570D02*
X136785714Y-155528570D01*
X136928571Y-155599999D01*
X137000000Y-155671427D01*
X137071428Y-155814284D01*
X137142857Y-156099999D01*
X137142857Y-156457141D01*
X137071428Y-156742856D01*
X137000000Y-156885713D01*
X136928571Y-156957141D01*
X136785714Y-157028570D01*
X136642857Y-157028570D01*
X136500000Y-156957141D01*
X136428571Y-156885713D01*
X136357142Y-156742856D01*
X136285714Y-156457141D01*
X136285714Y-156099999D01*
X136357142Y-155814284D01*
X136428571Y-155671427D01*
X136500000Y-155599999D01*
X136642857Y-155528570D01*
X138071428Y-155528570D02*
X138214285Y-155528570D01*
X138357142Y-155599999D01*
X138428571Y-155671427D01*
X138500000Y-155814284D01*
X138571428Y-156099999D01*
X138571428Y-156457141D01*
X138500000Y-156742856D01*
X138428571Y-156885713D01*
X138357142Y-156957141D01*
X138214285Y-157028570D01*
X138071428Y-157028570D01*
X137928571Y-156957141D01*
X137857142Y-156885713D01*
X137785714Y-156742856D01*
X137714285Y-156457141D01*
X137714285Y-156099999D01*
X137785714Y-155814284D01*
X137857142Y-155671427D01*
X137928571Y-155599999D01*
X138071428Y-155528570D01*
X140357142Y-157028570D02*
X140357142Y-156028570D01*
X140357142Y-156171427D02*
X140428571Y-156099999D01*
X140571428Y-156028570D01*
X140785714Y-156028570D01*
X140928571Y-156099999D01*
X141000000Y-156242856D01*
X141000000Y-157028570D01*
X141000000Y-156242856D02*
X141071428Y-156099999D01*
X141214285Y-156028570D01*
X141428571Y-156028570D01*
X141571428Y-156099999D01*
X141642857Y-156242856D01*
X141642857Y-157028570D01*
X142357142Y-157028570D02*
X142357142Y-156028570D01*
X142357142Y-156171427D02*
X142428571Y-156099999D01*
X142571428Y-156028570D01*
X142785714Y-156028570D01*
X142928571Y-156099999D01*
X143000000Y-156242856D01*
X143000000Y-157028570D01*
X143000000Y-156242856D02*
X143071428Y-156099999D01*
X143214285Y-156028570D01*
X143428571Y-156028570D01*
X143571428Y-156099999D01*
X143642857Y-156242856D01*
X143642857Y-157028570D01*
X104000000Y-154999999D02*
X171000000Y-154999999D01*
X104000000Y-150500000D02*
X104000000Y-157699999D01*
X171000000Y-150500000D02*
X171000000Y-157699999D01*
X171000000Y-154999999D02*
X169873496Y-155586420D01*
X171000000Y-154999999D02*
X169873496Y-154413578D01*
X104000000Y-154999999D02*
X105126504Y-155586420D01*
X104000000Y-154999999D02*
X105126504Y-154413578D01*
X186671428Y-119500000D02*
X185671428Y-119500000D01*
X187242857Y-119142857D02*
X186171428Y-118785714D01*
X186171428Y-119714285D01*
X187028571Y-120214285D02*
X187100000Y-120285714D01*
X187171428Y-120428571D01*
X187171428Y-120785714D01*
X187100000Y-120928571D01*
X187028571Y-121000000D01*
X186885714Y-121071428D01*
X186742857Y-121071428D01*
X186528571Y-121000000D01*
X185671428Y-120142857D01*
X185671428Y-121071428D01*
X185814285Y-121714285D02*
X185742857Y-121785714D01*
X185671428Y-121714285D01*
X185742857Y-121642857D01*
X185814285Y-121714285D01*
X185671428Y-121714285D01*
X187171428Y-122714285D02*
X187171428Y-122857142D01*
X187100000Y-123000000D01*
X187028571Y-123071428D01*
X186885714Y-123142857D01*
X186600000Y-123214285D01*
X186242857Y-123214285D01*
X185957142Y-123142857D01*
X185814285Y-123071428D01*
X185742857Y-123000000D01*
X185671428Y-122857142D01*
X185671428Y-122714285D01*
X185742857Y-122571428D01*
X185814285Y-122500000D01*
X185957142Y-122428571D01*
X186242857Y-122357142D01*
X186600000Y-122357142D01*
X186885714Y-122428571D01*
X187028571Y-122500000D01*
X187100000Y-122571428D01*
X187171428Y-122714285D01*
X187171428Y-124142857D02*
X187171428Y-124285714D01*
X187100000Y-124428571D01*
X187028571Y-124500000D01*
X186885714Y-124571428D01*
X186600000Y-124642857D01*
X186242857Y-124642857D01*
X185957142Y-124571428D01*
X185814285Y-124500000D01*
X185742857Y-124428571D01*
X185671428Y-124285714D01*
X185671428Y-124142857D01*
X185742857Y-124000000D01*
X185814285Y-123928571D01*
X185957142Y-123857142D01*
X186242857Y-123785714D01*
X186600000Y-123785714D01*
X186885714Y-123857142D01*
X187028571Y-123928571D01*
X187100000Y-124000000D01*
X187171428Y-124142857D01*
X187171428Y-125571428D02*
X187171428Y-125714285D01*
X187100000Y-125857142D01*
X187028571Y-125928571D01*
X186885714Y-126000000D01*
X186600000Y-126071428D01*
X186242857Y-126071428D01*
X185957142Y-126000000D01*
X185814285Y-125928571D01*
X185742857Y-125857142D01*
X185671428Y-125714285D01*
X185671428Y-125571428D01*
X185742857Y-125428571D01*
X185814285Y-125357142D01*
X185957142Y-125285714D01*
X186242857Y-125214285D01*
X186600000Y-125214285D01*
X186885714Y-125285714D01*
X187028571Y-125357142D01*
X187100000Y-125428571D01*
X187171428Y-125571428D01*
X185671428Y-127857142D02*
X186671428Y-127857142D01*
X186528571Y-127857142D02*
X186600000Y-127928571D01*
X186671428Y-128071428D01*
X186671428Y-128285714D01*
X186600000Y-128428571D01*
X186457142Y-128500000D01*
X185671428Y-128500000D01*
X186457142Y-128500000D02*
X186600000Y-128571428D01*
X186671428Y-128714285D01*
X186671428Y-128928571D01*
X186600000Y-129071428D01*
X186457142Y-129142857D01*
X185671428Y-129142857D01*
X185671428Y-129857142D02*
X186671428Y-129857142D01*
X186528571Y-129857142D02*
X186600000Y-129928571D01*
X186671428Y-130071428D01*
X186671428Y-130285714D01*
X186600000Y-130428571D01*
X186457142Y-130500000D01*
X185671428Y-130500000D01*
X186457142Y-130500000D02*
X186600000Y-130571428D01*
X186671428Y-130714285D01*
X186671428Y-130928571D01*
X186600000Y-131071428D01*
X186457142Y-131142857D01*
X185671428Y-131142857D01*
X185000000Y-104000000D02*
X185000000Y-146000000D01*
X175500000Y-104000000D02*
X187700000Y-104000000D01*
X175500000Y-146000000D02*
X187700000Y-146000000D01*
X185000000Y-146000000D02*
X184413579Y-144873496D01*
X185000000Y-146000000D02*
X185586421Y-144873496D01*
X185000000Y-104000000D02*
X184413579Y-105126504D01*
X185000000Y-104000000D02*
X185586421Y-105126504D01*
X86971429Y-119571428D02*
X86971429Y-118857142D01*
X86257143Y-118785714D01*
X86328572Y-118857142D01*
X86400001Y-119000000D01*
X86400001Y-119357142D01*
X86328572Y-119500000D01*
X86257143Y-119571428D01*
X86114286Y-119642857D01*
X85757143Y-119642857D01*
X85614286Y-119571428D01*
X85542858Y-119500000D01*
X85471429Y-119357142D01*
X85471429Y-119000000D01*
X85542858Y-118857142D01*
X85614286Y-118785714D01*
X86971429Y-120571428D02*
X86971429Y-120714285D01*
X86900001Y-120857142D01*
X86828572Y-120928571D01*
X86685715Y-121000000D01*
X86400001Y-121071428D01*
X86042858Y-121071428D01*
X85757143Y-121000000D01*
X85614286Y-120928571D01*
X85542858Y-120857142D01*
X85471429Y-120714285D01*
X85471429Y-120571428D01*
X85542858Y-120428571D01*
X85614286Y-120357142D01*
X85757143Y-120285714D01*
X86042858Y-120214285D01*
X86400001Y-120214285D01*
X86685715Y-120285714D01*
X86828572Y-120357142D01*
X86900001Y-120428571D01*
X86971429Y-120571428D01*
X85614286Y-121714285D02*
X85542858Y-121785714D01*
X85471429Y-121714285D01*
X85542858Y-121642857D01*
X85614286Y-121714285D01*
X85471429Y-121714285D01*
X86971429Y-122714285D02*
X86971429Y-122857142D01*
X86900001Y-123000000D01*
X86828572Y-123071428D01*
X86685715Y-123142857D01*
X86400001Y-123214285D01*
X86042858Y-123214285D01*
X85757143Y-123142857D01*
X85614286Y-123071428D01*
X85542858Y-123000000D01*
X85471429Y-122857142D01*
X85471429Y-122714285D01*
X85542858Y-122571428D01*
X85614286Y-122500000D01*
X85757143Y-122428571D01*
X86042858Y-122357142D01*
X86400001Y-122357142D01*
X86685715Y-122428571D01*
X86828572Y-122500000D01*
X86900001Y-122571428D01*
X86971429Y-122714285D01*
X86971429Y-124142857D02*
X86971429Y-124285714D01*
X86900001Y-124428571D01*
X86828572Y-124500000D01*
X86685715Y-124571428D01*
X86400001Y-124642857D01*
X86042858Y-124642857D01*
X85757143Y-124571428D01*
X85614286Y-124500000D01*
X85542858Y-124428571D01*
X85471429Y-124285714D01*
X85471429Y-124142857D01*
X85542858Y-124000000D01*
X85614286Y-123928571D01*
X85757143Y-123857142D01*
X86042858Y-123785714D01*
X86400001Y-123785714D01*
X86685715Y-123857142D01*
X86828572Y-123928571D01*
X86900001Y-124000000D01*
X86971429Y-124142857D01*
X86971429Y-125571428D02*
X86971429Y-125714285D01*
X86900001Y-125857142D01*
X86828572Y-125928571D01*
X86685715Y-126000000D01*
X86400001Y-126071428D01*
X86042858Y-126071428D01*
X85757143Y-126000000D01*
X85614286Y-125928571D01*
X85542858Y-125857142D01*
X85471429Y-125714285D01*
X85471429Y-125571428D01*
X85542858Y-125428571D01*
X85614286Y-125357142D01*
X85757143Y-125285714D01*
X86042858Y-125214285D01*
X86400001Y-125214285D01*
X86685715Y-125285714D01*
X86828572Y-125357142D01*
X86900001Y-125428571D01*
X86971429Y-125571428D01*
X85471429Y-127857142D02*
X86471429Y-127857142D01*
X86328572Y-127857142D02*
X86400001Y-127928571D01*
X86471429Y-128071428D01*
X86471429Y-128285714D01*
X86400001Y-128428571D01*
X86257143Y-128500000D01*
X85471429Y-128500000D01*
X86257143Y-128500000D02*
X86400001Y-128571428D01*
X86471429Y-128714285D01*
X86471429Y-128928571D01*
X86400001Y-129071428D01*
X86257143Y-129142857D01*
X85471429Y-129142857D01*
X85471429Y-129857142D02*
X86471429Y-129857142D01*
X86328572Y-129857142D02*
X86400001Y-129928571D01*
X86471429Y-130071428D01*
X86471429Y-130285714D01*
X86400001Y-130428571D01*
X86257143Y-130500000D01*
X85471429Y-130500000D01*
X86257143Y-130500000D02*
X86400001Y-130571428D01*
X86471429Y-130714285D01*
X86471429Y-130928571D01*
X86400001Y-131071428D01*
X86257143Y-131142857D01*
X85471429Y-131142857D01*
X87500001Y-100000000D02*
X87500001Y-150000000D01*
X100000000Y-100000000D02*
X84800001Y-100000000D01*
X100000000Y-150000000D02*
X84800001Y-150000000D01*
X87500001Y-150000000D02*
X86913580Y-148873496D01*
X87500001Y-150000000D02*
X88086422Y-148873496D01*
X87500001Y-100000000D02*
X86913580Y-101126504D01*
X87500001Y-100000000D02*
X88086422Y-101126504D01*
X131214285Y-85328571D02*
X132214285Y-85328571D01*
X131571428Y-86828571D01*
X133500000Y-85328571D02*
X132785714Y-85328571D01*
X132714285Y-86042857D01*
X132785714Y-85971428D01*
X132928571Y-85900000D01*
X133285714Y-85900000D01*
X133428571Y-85971428D01*
X133500000Y-86042857D01*
X133571428Y-86185714D01*
X133571428Y-86542857D01*
X133500000Y-86685714D01*
X133428571Y-86757142D01*
X133285714Y-86828571D01*
X132928571Y-86828571D01*
X132785714Y-86757142D01*
X132714285Y-86685714D01*
X134214285Y-86685714D02*
X134285714Y-86757142D01*
X134214285Y-86828571D01*
X134142857Y-86757142D01*
X134214285Y-86685714D01*
X134214285Y-86828571D01*
X135214285Y-85328571D02*
X135357142Y-85328571D01*
X135500000Y-85400000D01*
X135571428Y-85471428D01*
X135642857Y-85614285D01*
X135714285Y-85900000D01*
X135714285Y-86257142D01*
X135642857Y-86542857D01*
X135571428Y-86685714D01*
X135500000Y-86757142D01*
X135357142Y-86828571D01*
X135214285Y-86828571D01*
X135071428Y-86757142D01*
X135000000Y-86685714D01*
X134928571Y-86542857D01*
X134857142Y-86257142D01*
X134857142Y-85900000D01*
X134928571Y-85614285D01*
X135000000Y-85471428D01*
X135071428Y-85400000D01*
X135214285Y-85328571D01*
X136642857Y-85328571D02*
X136785714Y-85328571D01*
X136928571Y-85400000D01*
X137000000Y-85471428D01*
X137071428Y-85614285D01*
X137142857Y-85900000D01*
X137142857Y-86257142D01*
X137071428Y-86542857D01*
X137000000Y-86685714D01*
X136928571Y-86757142D01*
X136785714Y-86828571D01*
X136642857Y-86828571D01*
X136500000Y-86757142D01*
X136428571Y-86685714D01*
X136357142Y-86542857D01*
X136285714Y-86257142D01*
X136285714Y-85900000D01*
X136357142Y-85614285D01*
X136428571Y-85471428D01*
X136500000Y-85400000D01*
X136642857Y-85328571D01*
X138071428Y-85328571D02*
X138214285Y-85328571D01*
X138357142Y-85400000D01*
X138428571Y-85471428D01*
X138500000Y-85614285D01*
X138571428Y-85900000D01*
X138571428Y-86257142D01*
X138500000Y-86542857D01*
X138428571Y-86685714D01*
X138357142Y-86757142D01*
X138214285Y-86828571D01*
X138071428Y-86828571D01*
X137928571Y-86757142D01*
X137857142Y-86685714D01*
X137785714Y-86542857D01*
X137714285Y-86257142D01*
X137714285Y-85900000D01*
X137785714Y-85614285D01*
X137857142Y-85471428D01*
X137928571Y-85400000D01*
X138071428Y-85328571D01*
X140357142Y-86828571D02*
X140357142Y-85828571D01*
X140357142Y-85971428D02*
X140428571Y-85900000D01*
X140571428Y-85828571D01*
X140785714Y-85828571D01*
X140928571Y-85900000D01*
X141000000Y-86042857D01*
X141000000Y-86828571D01*
X141000000Y-86042857D02*
X141071428Y-85900000D01*
X141214285Y-85828571D01*
X141428571Y-85828571D01*
X141571428Y-85900000D01*
X141642857Y-86042857D01*
X141642857Y-86828571D01*
X142357142Y-86828571D02*
X142357142Y-85828571D01*
X142357142Y-85971428D02*
X142428571Y-85900000D01*
X142571428Y-85828571D01*
X142785714Y-85828571D01*
X142928571Y-85900000D01*
X143000000Y-86042857D01*
X143000000Y-86828571D01*
X143000000Y-86042857D02*
X143071428Y-85900000D01*
X143214285Y-85828571D01*
X143428571Y-85828571D01*
X143571428Y-85900000D01*
X143642857Y-86042857D01*
X143642857Y-86828571D01*
X100000000Y-87500000D02*
X175000000Y-87500000D01*
X100000000Y-100000000D02*
X100000000Y-84800000D01*
X175000000Y-100000000D02*
X175000000Y-84800000D01*
X175000000Y-87500000D02*
X173873496Y-88086421D01*
X175000000Y-87500000D02*
X173873496Y-86913579D01*
X100000000Y-87500000D02*
X101126504Y-88086421D01*
X100000000Y-87500000D02*
X101126504Y-86913579D01*
D11*
%TO.C,J?1*%
X99970000Y-130750000D02*
X99970000Y-140750000D01*
%TD*%
%TO.C,J?1*%
D12*
X98452380Y-141164285D02*
X97452380Y-141164285D01*
X97452380Y-140821428D01*
X97500000Y-140735714D01*
X97547619Y-140692857D01*
X97642857Y-140650000D01*
X97785714Y-140650000D01*
X97880952Y-140692857D01*
X97928571Y-140735714D01*
X97976190Y-140821428D01*
X97976190Y-141164285D01*
X98357142Y-139750000D02*
X98404761Y-139792857D01*
X98452380Y-139921428D01*
X98452380Y-140007142D01*
X98404761Y-140135714D01*
X98309523Y-140221428D01*
X98214285Y-140264285D01*
X98023809Y-140307142D01*
X97880952Y-140307142D01*
X97690476Y-140264285D01*
X97595238Y-140221428D01*
X97500000Y-140135714D01*
X97452380Y-140007142D01*
X97452380Y-139921428D01*
X97500000Y-139792857D01*
X97547619Y-139750000D01*
X97928571Y-139064285D02*
X97976190Y-138935714D01*
X98023809Y-138892857D01*
X98119047Y-138850000D01*
X98261904Y-138850000D01*
X98357142Y-138892857D01*
X98404761Y-138935714D01*
X98452380Y-139021428D01*
X98452380Y-139364285D01*
X97452380Y-139364285D01*
X97452380Y-139064285D01*
X97500000Y-138978571D01*
X97547619Y-138935714D01*
X97642857Y-138892857D01*
X97738095Y-138892857D01*
X97833333Y-138935714D01*
X97880952Y-138978571D01*
X97928571Y-139064285D01*
X97928571Y-139364285D01*
X97928571Y-137478571D02*
X97928571Y-137778571D01*
X98452380Y-137778571D02*
X97452380Y-137778571D01*
X97452380Y-137350000D01*
X98452380Y-137007142D02*
X97785714Y-137007142D01*
X97976190Y-137007142D02*
X97880952Y-136964285D01*
X97833333Y-136921428D01*
X97785714Y-136835714D01*
X97785714Y-136750000D01*
X98452380Y-136321428D02*
X98404761Y-136407142D01*
X98357142Y-136450000D01*
X98261904Y-136492857D01*
X97976190Y-136492857D01*
X97880952Y-136450000D01*
X97833333Y-136407142D01*
X97785714Y-136321428D01*
X97785714Y-136192857D01*
X97833333Y-136107142D01*
X97880952Y-136064285D01*
X97976190Y-136021428D01*
X98261904Y-136021428D01*
X98357142Y-136064285D01*
X98404761Y-136107142D01*
X98452380Y-136192857D01*
X98452380Y-136321428D01*
X97785714Y-135635714D02*
X98452380Y-135635714D01*
X97880952Y-135635714D02*
X97833333Y-135592857D01*
X97785714Y-135507142D01*
X97785714Y-135378571D01*
X97833333Y-135292857D01*
X97928571Y-135250000D01*
X98452380Y-135250000D01*
X97785714Y-134950000D02*
X97785714Y-134607142D01*
X97452380Y-134821428D02*
X98309523Y-134821428D01*
X98404761Y-134778571D01*
X98452380Y-134692857D01*
X98452380Y-134607142D01*
X97928571Y-133621428D02*
X97928571Y-133321428D01*
X98452380Y-133192857D02*
X98452380Y-133621428D01*
X97452380Y-133621428D01*
X97452380Y-133192857D01*
X98452380Y-132421428D02*
X97452380Y-132421428D01*
X98404761Y-132421428D02*
X98452380Y-132507142D01*
X98452380Y-132678571D01*
X98404761Y-132764285D01*
X98357142Y-132807142D01*
X98261904Y-132850000D01*
X97976190Y-132850000D01*
X97880952Y-132807142D01*
X97833333Y-132764285D01*
X97785714Y-132678571D01*
X97785714Y-132507142D01*
X97833333Y-132421428D01*
X97785714Y-131607142D02*
X98595238Y-131607142D01*
X98690476Y-131650000D01*
X98738095Y-131692857D01*
X98785714Y-131778571D01*
X98785714Y-131907142D01*
X98738095Y-131992857D01*
X98404761Y-131607142D02*
X98452380Y-131692857D01*
X98452380Y-131864285D01*
X98404761Y-131950000D01*
X98357142Y-131992857D01*
X98261904Y-132035714D01*
X97976190Y-132035714D01*
X97880952Y-131992857D01*
X97833333Y-131950000D01*
X97785714Y-131864285D01*
X97785714Y-131692857D01*
X97833333Y-131607142D01*
X98404761Y-130835714D02*
X98452380Y-130921428D01*
X98452380Y-131092857D01*
X98404761Y-131178571D01*
X98309523Y-131221428D01*
X97928571Y-131221428D01*
X97833333Y-131178571D01*
X97785714Y-131092857D01*
X97785714Y-130921428D01*
X97833333Y-130835714D01*
X97928571Y-130792857D01*
X98023809Y-130792857D01*
X98119047Y-131221428D01*
%TD*%
M02*
